<svg xmlns="http://www.w3.org/2000/svg" width="720" height="326" viewBox="0 0 720 326"><rect x="3" y="3" width="714" height="320" rx="10" fill="#537e80" stroke="#344c50" stroke-width="3"/><path d="M18 14 L18 311" fill="none" stroke="#90ad9c" stroke-width="0.7" stroke-linecap="round" stroke-linejoin="round"/><path d="M40 14 L40 311" fill="none" stroke="#90ad9c" stroke-width="0.7" stroke-linecap="round" stroke-linejoin="round"/><path d="M62 14 L62 311" fill="none" stroke="#90ad9c" stroke-width="0.7" stroke-linecap="round" stroke-linejoin="round"/><path d="M84 14 L84 311" fill="none" stroke="#90ad9c" stroke-width="0.7" stroke-linecap="round" stroke-linejoin="round"/><path d="M106 14 L106 311" fill="none" stroke="#90ad9c" stroke-width="0.7" stroke-linecap="round" stroke-linejoin="round"/><path d="M128 14 L128 311" fill="none" stroke="#90ad9c" stroke-width="0.7" stroke-linecap="round" stroke-linejoin="round"/><path d="M150 14 L150 311" fill="none" stroke="#90ad9c" stroke-width="0.7" stroke-linecap="round" stroke-linejoin="round"/><path d="M172 14 L172 311" fill="none" stroke="#90ad9c" stroke-width="0.7" stroke-linecap="round" stroke-linejoin="round"/><path d="M194 14 L194 311" fill="none" stroke="#90ad9c" stroke-width="0.7" stroke-linecap="round" stroke-linejoin="round"/><path d="M216 14 L216 311" fill="none" stroke="#90ad9c" stroke-width="0.7" stroke-linecap="round" stroke-linejoin="round"/><path d="M238 14 L238 311" fill="none" stroke="#90ad9c" stroke-width="0.7" stroke-linecap="round" stroke-linejoin="round"/><path d="M260 14 L260 311" fill="none" stroke="#90ad9c" stroke-width="0.7" stroke-linecap="round" stroke-linejoin="round"/><path d="M282 14 L282 311" fill="none" stroke="#90ad9c" stroke-width="0.7" stroke-linecap="round" stroke-linejoin="round"/><path d="M304 14 L304 311" fill="none" stroke="#90ad9c" stroke-width="0.7" stroke-linecap="round" stroke-linejoin="round"/><path d="M326 14 L326 311" fill="none" stroke="#90ad9c" stroke-width="0.7" stroke-linecap="round" stroke-linejoin="round"/><path d="M348 14 L348 311" fill="none" stroke="#90ad9c" stroke-width="0.7" stroke-linecap="round" stroke-linejoin="round"/><path d="M370 14 L370 311" fill="none" stroke="#90ad9c" stroke-width="0.7" stroke-linecap="round" stroke-linejoin="round"/><path d="M392 14 L392 311" fill="none" stroke="#90ad9c" stroke-width="0.7" stroke-linecap="round" stroke-linejoin="round"/><path d="M414 14 L414 311" fill="none" stroke="#90ad9c" stroke-width="0.7" stroke-linecap="round" stroke-linejoin="round"/><path d="M436 14 L436 311" fill="none" stroke="#90ad9c" stroke-width="0.7" stroke-linecap="round" stroke-linejoin="round"/><path d="M458 14 L458 311" fill="none" stroke="#90ad9c" stroke-width="0.7" stroke-linecap="round" stroke-linejoin="round"/><path d="M480 14 L480 311" fill="none" stroke="#90ad9c" stroke-width="0.7" stroke-linecap="round" stroke-linejoin="round"/><path d="M502 14 L502 311" fill="none" stroke="#90ad9c" stroke-width="0.7" stroke-linecap="round" stroke-linejoin="round"/><path d="M524 14 L524 311" fill="none" stroke="#90ad9c" stroke-width="0.7" stroke-linecap="round" stroke-linejoin="round"/><path d="M546 14 L546 311" fill="none" stroke="#90ad9c" stroke-width="0.7" stroke-linecap="round" stroke-linejoin="round"/><path d="M568 14 L568 311" fill="none" stroke="#90ad9c" stroke-width="0.7" stroke-linecap="round" stroke-linejoin="round"/><path d="M590 14 L590 311" fill="none" stroke="#90ad9c" stroke-width="0.7" stroke-linecap="round" stroke-linejoin="round"/><path d="M612 14 L612 311" fill="none" stroke="#90ad9c" stroke-width="0.7" stroke-linecap="round" stroke-linejoin="round"/><path d="M634 14 L634 311" fill="none" stroke="#90ad9c" stroke-width="0.7" stroke-linecap="round" stroke-linejoin="round"/><path d="M656 14 L656 311" fill="none" stroke="#90ad9c" stroke-width="0.7" stroke-linecap="round" stroke-linejoin="round"/><path d="M678 14 L678 311" fill="none" stroke="#90ad9c" stroke-width="0.7" stroke-linecap="round" stroke-linejoin="round"/><path d="M700 14 L700 311" fill="none" stroke="#90ad9c" stroke-width="0.7" stroke-linecap="round" stroke-linejoin="round"/><path d="M14 16 L706 16" fill="none" stroke="#90ad9c" stroke-width="0.7" stroke-linecap="round" stroke-linejoin="round"/><path d="M14 38 L706 38" fill="none" stroke="#90ad9c" stroke-width="0.7" stroke-linecap="round" stroke-linejoin="round"/><path d="M14 60 L706 60" fill="none" stroke="#90ad9c" stroke-width="0.7" stroke-linecap="round" stroke-linejoin="round"/><path d="M14 82 L706 82" fill="none" stroke="#90ad9c" stroke-width="0.7" stroke-linecap="round" stroke-linejoin="round"/><path d="M14 104 L706 104" fill="none" stroke="#90ad9c" stroke-width="0.7" stroke-linecap="round" stroke-linejoin="round"/><path d="M14 126 L706 126" fill="none" stroke="#90ad9c" stroke-width="0.7" stroke-linecap="round" stroke-linejoin="round"/><path d="M14 148 L706 148" fill="none" stroke="#90ad9c" stroke-width="0.7" stroke-linecap="round" stroke-linejoin="round"/><path d="M14 170 L706 170" fill="none" stroke="#90ad9c" stroke-width="0.7" stroke-linecap="round" stroke-linejoin="round"/><path d="M14 192 L706 192" fill="none" stroke="#90ad9c" stroke-width="0.7" stroke-linecap="round" stroke-linejoin="round"/><path d="M14 214 L706 214" fill="none" stroke="#90ad9c" stroke-width="0.7" stroke-linecap="round" stroke-linejoin="round"/><path d="M14 236 L706 236" fill="none" stroke="#90ad9c" stroke-width="0.7" stroke-linecap="round" stroke-linejoin="round"/><path d="M14 258 L706 258" fill="none" stroke="#90ad9c" stroke-width="0.7" stroke-linecap="round" stroke-linejoin="round"/><path d="M14 280 L706 280" fill="none" stroke="#90ad9c" stroke-width="0.7" stroke-linecap="round" stroke-linejoin="round"/><path d="M14 302 L706 302" fill="none" stroke="#90ad9c" stroke-width="0.7" stroke-linecap="round" stroke-linejoin="round"/><rect x="18" y="16" width="684" height="294" rx="3" fill="none" stroke="#c0d0b7" stroke-width="1"/></svg>
