<svg xmlns="http://www.w3.org/2000/svg" width="870" height="600" viewBox="0 0 870 600"><rect x="205" y="12" width="460" height="280" rx="3" fill="#faf2df" stroke="#cdbb99" stroke-width="2"/><rect x="116" y="271" width="640" height="42" rx="10" fill="#344c50" stroke="none" stroke-width="2"/><rect x="94" y="268" width="30" height="51" rx="8" fill="#344c50" stroke="none" stroke-width="2"/><rect x="750" y="268" width="30" height="51" rx="8" fill="#344c50" stroke="none" stroke-width="2"/><path d="M175 305 L695 305 Q721 304 728 332 L787 529 Q791 550 760 554 L109 554 Q79 550 85 529 L142 333 Q149 305 175 305 Z" fill="#537e80" stroke="#344c50" stroke-width="4" stroke-linecap="round" stroke-linejoin="round"/><path d="M183 328 L687 328 L729 505 L141 505 Z" fill="#253e43" stroke="none" stroke-width="2" stroke-linecap="round" stroke-linejoin="round"/><rect x="315" y="301" width="240" height="30" rx="3" fill="#d7bf90" stroke="none" stroke-width="2"/><path d="M370 306 Q435 347 500 306" fill="none" stroke="#344c50" stroke-width="4" stroke-linecap="round" stroke-linejoin="round"/><ellipse cx="220" cy="381" rx="15" ry="12" fill="#151f24" stroke="none" stroke-width="2"/><circle cx="220" cy="376" r="14" fill="#e6d4b0" stroke="#344c50" stroke-width="2"/><ellipse cx="263" cy="381" rx="15" ry="12" fill="#151f24" stroke="none" stroke-width="2"/><circle cx="263" cy="376" r="14" fill="#e6d4b0" stroke="#344c50" stroke-width="2"/><ellipse cx="306" cy="381" rx="15" ry="12" fill="#151f24" stroke="none" stroke-width="2"/><circle cx="306" cy="376" r="14" fill="#e6d4b0" stroke="#344c50" stroke-width="2"/><ellipse cx="349" cy="381" rx="15" ry="12" fill="#151f24" stroke="none" stroke-width="2"/><circle cx="349" cy="376" r="14" fill="#e6d4b0" stroke="#344c50" stroke-width="2"/><ellipse cx="392" cy="381" rx="15" ry="12" fill="#151f24" stroke="none" stroke-width="2"/><circle cx="392" cy="376" r="14" fill="#e6d4b0" stroke="#344c50" stroke-width="2"/><ellipse cx="435" cy="381" rx="15" ry="12" fill="#151f24" stroke="none" stroke-width="2"/><circle cx="435" cy="376" r="14" fill="#e6d4b0" stroke="#344c50" stroke-width="2"/><ellipse cx="478" cy="381" rx="15" ry="12" fill="#151f24" stroke="none" stroke-width="2"/><circle cx="478" cy="376" r="14" fill="#e6d4b0" stroke="#344c50" stroke-width="2"/><ellipse cx="521" cy="381" rx="15" ry="12" fill="#151f24" stroke="none" stroke-width="2"/><circle cx="521" cy="376" r="14" fill="#e6d4b0" stroke="#344c50" stroke-width="2"/><ellipse cx="564" cy="381" rx="15" ry="12" fill="#151f24" stroke="none" stroke-width="2"/><circle cx="564" cy="376" r="14" fill="#e6d4b0" stroke="#344c50" stroke-width="2"/><ellipse cx="607" cy="381" rx="15" ry="12" fill="#151f24" stroke="none" stroke-width="2"/><circle cx="607" cy="376" r="14" fill="#e6d4b0" stroke="#344c50" stroke-width="2"/><ellipse cx="238" cy="421" rx="15" ry="12" fill="#151f24" stroke="none" stroke-width="2"/><circle cx="238" cy="416" r="14" fill="#e6d4b0" stroke="#344c50" stroke-width="2"/><ellipse cx="281" cy="421" rx="15" ry="12" fill="#151f24" stroke="none" stroke-width="2"/><circle cx="281" cy="416" r="14" fill="#e6d4b0" stroke="#344c50" stroke-width="2"/><ellipse cx="324" cy="421" rx="15" ry="12" fill="#151f24" stroke="none" stroke-width="2"/><circle cx="324" cy="416" r="14" fill="#e6d4b0" stroke="#344c50" stroke-width="2"/><ellipse cx="367" cy="421" rx="15" ry="12" fill="#151f24" stroke="none" stroke-width="2"/><circle cx="367" cy="416" r="14" fill="#e6d4b0" stroke="#344c50" stroke-width="2"/><ellipse cx="410" cy="421" rx="15" ry="12" fill="#151f24" stroke="none" stroke-width="2"/><circle cx="410" cy="416" r="14" fill="#e6d4b0" stroke="#344c50" stroke-width="2"/><ellipse cx="453" cy="421" rx="15" ry="12" fill="#151f24" stroke="none" stroke-width="2"/><circle cx="453" cy="416" r="14" fill="#e6d4b0" stroke="#344c50" stroke-width="2"/><ellipse cx="496" cy="421" rx="15" ry="12" fill="#151f24" stroke="none" stroke-width="2"/><circle cx="496" cy="416" r="14" fill="#e6d4b0" stroke="#344c50" stroke-width="2"/><ellipse cx="539" cy="421" rx="15" ry="12" fill="#151f24" stroke="none" stroke-width="2"/><circle cx="539" cy="416" r="14" fill="#e6d4b0" stroke="#344c50" stroke-width="2"/><ellipse cx="582" cy="421" rx="15" ry="12" fill="#151f24" stroke="none" stroke-width="2"/><circle cx="582" cy="416" r="14" fill="#e6d4b0" stroke="#344c50" stroke-width="2"/><ellipse cx="256" cy="461" rx="15" ry="12" fill="#151f24" stroke="none" stroke-width="2"/><circle cx="256" cy="456" r="14" fill="#e6d4b0" stroke="#344c50" stroke-width="2"/><ellipse cx="299" cy="461" rx="15" ry="12" fill="#151f24" stroke="none" stroke-width="2"/><circle cx="299" cy="456" r="14" fill="#e6d4b0" stroke="#344c50" stroke-width="2"/><ellipse cx="342" cy="461" rx="15" ry="12" fill="#151f24" stroke="none" stroke-width="2"/><circle cx="342" cy="456" r="14" fill="#e6d4b0" stroke="#344c50" stroke-width="2"/><ellipse cx="385" cy="461" rx="15" ry="12" fill="#151f24" stroke="none" stroke-width="2"/><circle cx="385" cy="456" r="14" fill="#e6d4b0" stroke="#344c50" stroke-width="2"/><ellipse cx="428" cy="461" rx="15" ry="12" fill="#151f24" stroke="none" stroke-width="2"/><circle cx="428" cy="456" r="14" fill="#e6d4b0" stroke="#344c50" stroke-width="2"/><ellipse cx="471" cy="461" rx="15" ry="12" fill="#151f24" stroke="none" stroke-width="2"/><circle cx="471" cy="456" r="14" fill="#e6d4b0" stroke="#344c50" stroke-width="2"/><ellipse cx="514" cy="461" rx="15" ry="12" fill="#151f24" stroke="none" stroke-width="2"/><circle cx="514" cy="456" r="14" fill="#e6d4b0" stroke="#344c50" stroke-width="2"/><rect x="290" y="492" width="280" height="18" rx="7" fill="#bba77f" stroke="none" stroke-width="2"/><rect x="134" y="532" width="602" height="9" rx="3" fill="#aac0a7" stroke="none" stroke-width="2"/></svg>
