<?xml version="1.0" encoding="UTF-8"?>
<!-- Generator: visioncortex VTracer 0.6.4 -->
<svg version="1.1" xmlns="http://www.w3.org/2000/svg" width="128" height="128">
<path d="M0,0 L72,0 L72,1 L79,1 L79,2 L82,2 L82,3 L84,3 L84,4 L86,4 L86,5 L88,5 L88,6 L89,6 L89,7 L90,7 L90,8 L91,8 L91,9 L92,9 L92,10 L93,10 L93,11 L94,11 L94,12 L95,12 L95,14 L96,14 L96,16 L97,16 L97,18 L98,18 L98,21 L99,21 L99,28 L100,28 L100,100 L99,100 L99,107 L98,107 L98,110 L97,110 L97,112 L96,112 L96,114 L95,114 L95,116 L94,116 L94,117 L93,117 L93,118 L92,118 L92,119 L91,119 L91,120 L90,120 L90,121 L89,121 L89,122 L88,122 L88,123 L86,123 L86,124 L84,124 L84,125 L82,125 L82,126 L79,126 L79,127 L72,127 L72,128 L0,128 L0,127 L-7,127 L-7,126 L-10,126 L-10,125 L-12,125 L-12,124 L-14,124 L-14,123 L-16,123 L-16,122 L-17,122 L-17,121 L-18,121 L-18,120 L-19,120 L-19,119 L-20,119 L-20,118 L-21,118 L-21,117 L-22,117 L-22,116 L-23,116 L-23,114 L-24,114 L-24,112 L-25,112 L-25,110 L-26,110 L-26,107 L-27,107 L-27,100 L-28,100 L-28,28 L-27,28 L-27,21 L-26,21 L-26,18 L-25,18 L-25,16 L-24,16 L-24,14 L-23,14 L-23,12 L-22,12 L-22,11 L-21,11 L-21,10 L-20,10 L-20,9 L-19,9 L-19,8 L-18,8 L-18,7 L-17,7 L-17,6 L-16,6 L-16,5 L-14,5 L-14,4 L-12,4 L-12,3 L-10,3 L-10,2 L-7,2 L-7,1 L0,1 Z " fill="#183C38" transform="translate(28,0)"/>
<path d="M0,0 L1,0 L1,1 L0,1 Z M47,0 L48,0 L48,1 L47,1 Z " fill="#E7A866" transform="translate(40,93)"/>
<path d="M0,0 L74,0 L74,13 L73,13 L73,18 L72,18 L72,21 L71,21 L71,24 L70,24 L70,26 L69,26 L69,28 L68,28 L68,30 L67,30 L67,31 L66,31 L66,32 L65,32 L65,33 L64,33 L64,34 L63,34 L63,35 L62,35 L62,36 L60,36 L60,37 L59,37 L59,38 L57,38 L57,39 L55,39 L55,40 L52,40 L52,41 L48,41 L48,42 L26,42 L26,41 L22,41 L22,40 L19,40 L19,39 L17,39 L17,38 L15,38 L15,37 L14,37 L14,36 L12,36 L12,35 L11,35 L11,34 L10,34 L10,33 L9,33 L9,32 L8,32 L8,31 L7,31 L7,30 L6,30 L6,28 L5,28 L5,26 L4,26 L4,24 L3,24 L3,21 L2,21 L2,18 L1,18 L1,13 L0,13 Z " fill="#E8A967" transform="translate(27,57)"/>
<path d="M0,0 L4,0 L4,1 L5,1 L5,3 L6,3 L6,5 L7,5 L7,12 L6,12 L6,14 L5,14 L5,15 L4,15 L4,16 L3,16 L3,17 L2,17 L2,18 L1,18 L1,19 L0,19 L0,21 L-1,21 L-1,23 L0,23 L0,25 L1,25 L1,26 L2,26 L2,30 L1,30 L1,31 L-3,31 L-3,30 L-4,30 L-4,28 L-5,28 L-5,26 L-6,26 L-6,17 L-5,17 L-5,16 L-4,16 L-4,15 L-3,15 L-3,14 L-2,14 L-2,13 L-1,13 L-1,12 L0,12 L0,11 L1,11 L1,6 L0,6 L0,5 L-1,5 L-1,1 L0,1 Z " fill="#F3E8D3" transform="translate(87,14)"/>
<path d="M0,0 L4,0 L4,1 L5,1 L5,3 L6,3 L6,5 L7,5 L7,12 L6,12 L6,14 L5,14 L5,15 L4,15 L4,16 L3,16 L3,17 L2,17 L2,18 L1,18 L1,19 L0,19 L0,21 L-1,21 L-1,23 L0,23 L0,25 L1,25 L1,26 L2,26 L2,30 L1,30 L1,31 L-3,31 L-3,30 L-4,30 L-4,28 L-5,28 L-5,26 L-6,26 L-6,17 L-5,17 L-5,16 L-4,16 L-4,15 L-3,15 L-3,14 L-2,14 L-2,13 L-1,13 L-1,12 L0,12 L0,11 L1,11 L1,6 L0,6 L0,5 L-1,5 L-1,1 L0,1 Z " fill="#F3E8D3" transform="translate(64,14)"/>
<path d="M0,0 L4,0 L4,1 L5,1 L5,3 L6,3 L6,5 L7,5 L7,12 L6,12 L6,14 L5,14 L5,15 L4,15 L4,16 L3,16 L3,17 L2,17 L2,18 L1,18 L1,19 L0,19 L0,21 L-1,21 L-1,23 L0,23 L0,25 L1,25 L1,26 L2,26 L2,30 L1,30 L1,31 L-3,31 L-3,30 L-4,30 L-4,28 L-5,28 L-5,26 L-6,26 L-6,17 L-5,17 L-5,16 L-4,16 L-4,15 L-3,15 L-3,14 L-2,14 L-2,13 L-1,13 L-1,12 L0,12 L0,11 L1,11 L1,6 L0,6 L0,5 L-1,5 L-1,1 L0,1 Z " fill="#F3E8D3" transform="translate(41,14)"/>
<path d="M0,0 L1,0 L1,1 L0,1 Z M-1,1 L0,1 L0,2 L-1,2 Z M-2,2 L-1,2 L-1,3 L-2,3 Z M-3,3 L-2,3 L-2,4 L-3,4 Z M-4,4 L-3,4 L-3,5 L-4,5 Z M-5,5 L-4,5 L-4,6 L-5,6 Z M-6,6 L-5,6 L-5,7 L-6,7 Z M-7,7 L-6,7 L-6,8 L-7,8 Z " fill="#183C38" transform="translate(12,5)"/>
<path d="M0,0 L1,0 L1,10 L0,10 Z " fill="#DBA263" transform="translate(26,58)"/>
<path d="M0,0 L1,0 L1,1 L0,1 Z " fill="#173B37" opacity="0.9411765" transform="translate(20,126)"/>
<path d="M0,0 L8,0 L8,1 L0,1 Z " fill="#D69F62" transform="translate(54,99)"/>
<path d="M0,0 L1,0 L1,8 L0,8 Z " fill="#CE9C60" transform="translate(101,60)"/>
<path d="M0,0 L1,0 L1,1 L0,1 Z " fill="#173B37" opacity="0.9411765" transform="translate(126,20)"/>
<path d="M0,0 L1,0 L1,1 L0,1 Z " fill="#173B37" opacity="0.9529412" transform="translate(1,20)"/>
<path d="M0,0 L1,0 L1,1 L0,1 Z " fill="#173B37" opacity="0.9529412" transform="translate(20,1)"/>
<path d="M0,0 L1,0 L1,1 L0,1 Z " fill="#183B38" opacity="0.8745098" transform="translate(102,127)"/>
<path d="M0,0 L1,0 L1,1 L0,1 Z " fill="#183B38" opacity="0.8745098" transform="translate(127,102)"/>
<path d="M0,0 L1,0 L1,1 L0,1 Z " fill="#173A37" opacity="0.88235295" transform="translate(0,102)"/>
<path d="M0,0 L1,0 L1,1 L0,1 Z " fill="#173A37" opacity="0.88235295" transform="translate(102,0)"/>
<path d="M0,0 L5,0 L5,1 L0,1 Z " fill="#CF9C61" transform="translate(66,99)"/>
<path d="M0,0 L1,0 L1,5 L0,5 Z " fill="#949E90" transform="translate(80,33)"/>
<path d="M0,0 L1,0 L1,5 L0,5 Z " fill="#949E90" transform="translate(57,33)"/>
<path d="M0,0 L1,0 L1,5 L0,5 Z " fill="#949E90" transform="translate(34,33)"/>
<path d="M0,0 L1,0 L1,1 L0,1 Z " fill="#173B37" opacity="0.98039216" transform="translate(27,127)"/>
<path d="M0,0 L1,0 L1,1 L0,1 Z " fill="#173B37" opacity="0.52156866" transform="translate(14,124)"/>
<path d="M0,0 L1,0 L1,1 L0,1 Z " fill="#173B37" opacity="0.80784315" transform="translate(10,121)"/>
<path d="M0,0 L1,0 L1,1 L0,1 Z " fill="#173B37" opacity="0.9607843" transform="translate(3,112)"/>
<path d="M0,0 L4,0 L4,1 L0,1 Z " fill="#30483D" transform="translate(71,99)"/>
<path d="M0,0 L4,0 L4,1 L0,1 Z " fill="#A18356" transform="translate(54,99)"/>
<path d="M0,0 L1,0 L1,1 L0,1 Z " fill="#173B37" opacity="0.98039216" transform="translate(127,27)"/>
<path d="M0,0 L1,0 L1,1 L0,1 Z " fill="#173B37" opacity="0.98039216" transform="translate(0,27)"/>
<path d="M0,0 L1,0 L1,1 L0,1 Z " fill="#173B37" opacity="0.52156866" transform="translate(124,14)"/>
<path d="M0,0 L1,0 L1,1 L0,1 Z " fill="#173B37" opacity="0.80784315" transform="translate(121,10)"/>
<path d="M0,0 L1,0 L1,1 L0,1 Z " fill="#173B36" opacity="0.81960785" transform="translate(6,10)"/>
<path d="M0,0 L1,0 L1,1 L0,1 Z " fill="#173B36" opacity="0.81960785" transform="translate(10,6)"/>
<path d="M0,0 L1,0 L1,1 L0,1 Z " fill="#173B37" opacity="0.89411765" transform="translate(13,4)"/>
<path d="M0,0 L1,0 L1,1 L0,1 Z " fill="#173B37" opacity="0.9607843" transform="translate(112,3)"/>
<path d="M0,0 L1,0 L1,1 L0,1 Z " fill="#173B37" opacity="0.98039216" transform="translate(27,0)"/>
<path d="M0,0 L1,0 L1,1 L0,1 Z " fill="#163C37" opacity="0.6156863" transform="translate(23,0)"/>
<path d="M0,0 L1,0 L1,1 L0,1 Z " fill="#173B37" opacity="0.80784315" transform="translate(6,117)"/>
<path d="M0,0 L1,0 L1,3 L0,3 Z " fill="#827450" transform="translate(101,65)"/>
<path d="M0,0 L1,0 L1,3 L0,3 Z " fill="#837450" transform="translate(26,65)"/>
<path d="M0,0 L1,0 L1,1 L0,1 Z " fill="#173B37" opacity="0.80784315" transform="translate(117,6)"/>
<path d="M0,0 L1,0 L1,1 L0,1 Z " fill="#173B37" opacity="0.011764706" transform="translate(107,127)"/>
<path d="M0,0 L1,0 L1,1 L0,1 Z " fill="#163A36" opacity="0.44313726" transform="translate(105,127)"/>
<path d="M0,0 L1,0 L1,1 L0,1 Z " fill="#183B38" opacity="0.8745098" transform="translate(25,127)"/>
<path d="M0,0 L1,0 L1,1 L0,1 Z " fill="#173B36" opacity="0.6039216" transform="translate(23,127)"/>
<path d="M0,0 L1,0 L1,1 L0,1 Z " fill="#133A35" opacity="0.20392157" transform="translate(21,127)"/>
<path d="M0,0 L1,0 L1,1 L0,1 Z " fill="#173B37" opacity="0.023529412" transform="translate(110,126)"/>
<path d="M0,0 L1,0 L1,1 L0,1 Z " fill="#163A36" opacity="0.30980393" transform="translate(18,126)"/>
<path d="M0,0 L1,0 L1,1 L0,1 Z " fill="#173B37" opacity="0.07058824" transform="translate(112,125)"/>
<path d="M0,0 L1,0 L1,1 L0,1 Z " fill="#173A36" opacity="0.50980395" transform="translate(16,125)"/>
<path d="M0,0 L1,0 L1,1 L0,1 Z " fill="#183B38" opacity="0.039215688" transform="translate(114,124)"/>
<path d="M0,0 L1,0 L1,1 L0,1 Z " fill="#173A37" opacity="0.88235295" transform="translate(13,123)"/>
<path d="M0,0 L1,0 L1,1 L0,1 Z M-1,1 L0,1 L0,2 L-1,2 Z " fill="#143737" opacity="0.14509805" transform="translate(120,119)"/>
<path d="M0,0 L1,0 L1,1 L0,1 Z M1,1 L2,1 L2,2 L1,2 Z " fill="#133A34" opacity="0.15294118" transform="translate(7,119)"/>
<path d="M0,0 L1,0 L1,1 L0,1 Z " fill="#173A36" opacity="0.039215688" transform="translate(124,114)"/>
<path d="M0,0 L1,0 L1,1 L0,1 Z " fill="#173B37" opacity="0.07058824" transform="translate(125,112)"/>
<path d="M0,0 L1,0 L1,1 L0,1 Z " fill="#163A37" opacity="0.023529412" transform="translate(126,110)"/>
<path d="M0,0 L1,0 L1,1 L0,1 Z " fill="#163B35" opacity="0.02745098" transform="translate(1,110)"/>
<path d="M0,0 L1,0 L1,1 L0,1 Z " fill="#133A35" opacity="0.011764706" transform="translate(127,107)"/>
<path d="M0,0 L1,0 L1,1 L0,1 Z " fill="#173C37" opacity="0.015686275" transform="translate(0,107)"/>
<path d="M0,0 L1,0 L1,1 L0,1 Z " fill="#163A36" opacity="0.44313726" transform="translate(127,105)"/>
<path d="M0,0 L1,0 L1,1 L0,1 Z " fill="#163B37" opacity="0.4509804" transform="translate(0,105)"/>
<path d="M0,0 L2,0 L2,1 L0,1 Z " fill="#756C4D" transform="translate(71,99)"/>
<path d="M0,0 L2,0 L2,1 L0,1 Z " fill="#A18356" transform="translate(69,99)"/>
<path d="M0,0 L2,0 L2,1 L0,1 Z " fill="#E5A765" transform="translate(62,99)"/>
<path d="M0,0 L2,0 L2,1 L0,1 Z " fill="#C99860" transform="translate(58,99)"/>
<path d="M0,0 L2,0 L2,1 L0,1 Z " fill="#756C4D" transform="translate(54,99)"/>
<path d="M0,0 L2,0 L2,1 L0,1 Z " fill="#193C38" transform="translate(78,98)"/>
<path d="M0,0 L2,0 L2,1 L0,1 Z " fill="#80734F" transform="translate(76,98)"/>
<path d="M0,0 L2,0 L2,1 L0,1 Z " fill="#B08C5A" transform="translate(50,98)"/>
<path d="M0,0 L2,0 L2,1 L0,1 Z " fill="#D69F63" transform="translate(47,97)"/>
<path d="M0,0 L2,0 L2,1 L0,1 Z " fill="#22413A" transform="translate(83,96)"/>
<path d="M0,0 L2,0 L2,1 L0,1 Z " fill="#1B3E39" transform="translate(85,95)"/>
<path d="M0,0 L1,0 L1,1 L0,1 Z M-1,1 L0,1 L0,2 L-1,2 Z " fill="#CD9A60" transform="translate(92,89)"/>
<path d="M0,0 L1,0 L1,1 L0,1 Z M1,1 L2,1 L2,2 L1,2 Z " fill="#CD9A60" transform="translate(35,89)"/>
<path d="M0,0 L1,0 L1,2 L0,2 Z " fill="#1A3D38" transform="translate(96,84)"/>
<path d="M0,0 L1,0 L1,2 L0,2 Z " fill="#1A3D38" transform="translate(31,84)"/>
<path d="M0,0 L1,0 L1,2 L0,2 Z " fill="#204039" transform="translate(97,82)"/>
<path d="M0,0 L1,0 L1,2 L0,2 Z " fill="#204039" transform="translate(30,82)"/>
<path d="M0,0 L1,0 L1,2 L0,2 Z " fill="#1A3D38" transform="translate(98,80)"/>
<path d="M0,0 L1,0 L1,2 L0,2 Z " fill="#1A3D38" transform="translate(29,80)"/>
<path d="M0,0 L1,0 L1,2 L0,2 Z " fill="#21413A" transform="translate(99,77)"/>
<path d="M0,0 L1,0 L1,2 L0,2 Z " fill="#606248" transform="translate(28,76)"/>
<path d="M0,0 L1,0 L1,2 L0,2 Z " fill="#69664A" transform="translate(100,72)"/>
<path d="M0,0 L1,0 L1,2 L0,2 Z " fill="#6B674A" transform="translate(27,72)"/>
<path d="M0,0 L1,0 L1,2 L0,2 Z " fill="#31483D" transform="translate(101,68)"/>
<path d="M0,0 L1,0 L1,2 L0,2 Z " fill="#32493E" transform="translate(26,68)"/>
<path d="M0,0 L1,0 L1,2 L0,2 Z " fill="#A58657" transform="translate(101,63)"/>
<path d="M0,0 L1,0 L1,2 L0,2 Z " fill="#A78658" transform="translate(26,63)"/>
<path d="M0,0 L1,0 L1,2 L0,2 Z " fill="#C99860" transform="translate(26,61)"/>
<path d="M0,0 L1,0 L1,2 L0,2 Z " fill="#DAA163" transform="translate(101,58)"/>
<path d="M0,0 L2,0 L2,1 L0,1 Z " fill="#DED7C4" transform="translate(84,44)"/>
<path d="M0,0 L2,0 L2,1 L0,1 Z " fill="#DED7C4" transform="translate(61,44)"/>
<path d="M0,0 L2,0 L2,1 L0,1 Z " fill="#DED7C4" transform="translate(38,44)"/>
<path d="M0,0 L1,0 L1,1 L0,1 Z M-1,1 L0,1 L0,2 L-1,2 Z " fill="#8B9689" transform="translate(88,43)"/>
<path d="M0,0 L1,0 L1,1 L0,1 Z M-1,1 L0,1 L0,2 L-1,2 Z " fill="#8B9689" transform="translate(65,43)"/>
<path d="M0,0 L1,0 L1,1 L0,1 Z M-1,1 L0,1 L0,2 L-1,2 Z " fill="#8B9689" transform="translate(42,43)"/>
<path d="M0,0 L1,0 L1,2 L0,2 Z " fill="#DDD7C3" transform="translate(88,40)"/>
<path d="M0,0 L1,0 L1,2 L0,2 Z " fill="#21423E" transform="translate(81,40)"/>
<path d="M0,0 L1,0 L1,2 L0,2 Z " fill="#DDD7C3" transform="translate(65,40)"/>
<path d="M0,0 L1,0 L1,2 L0,2 Z " fill="#21423E" transform="translate(58,40)"/>
<path d="M0,0 L1,0 L1,2 L0,2 Z " fill="#DDD7C3" transform="translate(42,40)"/>
<path d="M0,0 L1,0 L1,2 L0,2 Z " fill="#21423E" transform="translate(35,40)"/>
<path d="M0,0 L1,0 L1,2 L0,2 Z " fill="#748479" transform="translate(86,35)"/>
<path d="M0,0 L1,0 L1,2 L0,2 Z " fill="#748479" transform="translate(63,35)"/>
<path d="M0,0 L1,0 L1,2 L0,2 Z " fill="#748479" transform="translate(40,35)"/>
<path d="M0,0 L1,0 L1,2 L0,2 Z " fill="#7F8D81" transform="translate(80,33)"/>
<path d="M0,0 L1,0 L1,2 L0,2 Z " fill="#7F8D81" transform="translate(57,33)"/>
<path d="M0,0 L1,0 L1,2 L0,2 Z " fill="#7F8D81" transform="translate(34,33)"/>
<path d="M0,0 L1,0 L1,2 L0,2 Z " fill="#DBD5C2" transform="translate(81,31)"/>
<path d="M0,0 L1,0 L1,2 L0,2 Z " fill="#DBD5C2" transform="translate(58,31)"/>
<path d="M0,0 L1,0 L1,2 L0,2 Z " fill="#DBD5C2" transform="translate(35,31)"/>
<path d="M0,0 L1,0 L1,1 L0,1 Z " fill="#183B38" opacity="0.8745098" transform="translate(127,25)"/>
<path d="M0,0 L1,0 L1,1 L0,1 Z " fill="#173A37" opacity="0.88235295" transform="translate(0,25)"/>
<path d="M0,0 L1,0 L1,1 L0,1 Z " fill="#173B36" opacity="0.6039216" transform="translate(127,23)"/>
<path d="M0,0 L1,0 L1,2 L0,2 Z " fill="#2D4D47" transform="translate(94,22)"/>
<path d="M0,0 L1,0 L1,2 L0,2 Z " fill="#E0D9C5" transform="translate(88,22)"/>
<path d="M0,0 L1,0 L1,2 L0,2 Z " fill="#2D4D47" transform="translate(71,22)"/>
<path d="M0,0 L1,0 L1,2 L0,2 Z " fill="#E0D9C5" transform="translate(65,22)"/>
<path d="M0,0 L1,0 L1,2 L0,2 Z " fill="#2D4D47" transform="translate(48,22)"/>
<path d="M0,0 L1,0 L1,2 L0,2 Z " fill="#E0D9C5" transform="translate(42,22)"/>
<path d="M0,0 L1,0 L1,1 L0,1 Z " fill="#163C37" opacity="0.6156863" transform="translate(0,23)"/>
<path d="M0,0 L1,0 L1,1 L0,1 Z " fill="#133A35" opacity="0.20392157" transform="translate(127,21)"/>
<path d="M0,0 L1,0 L1,2 L0,2 Z " fill="#264742" transform="translate(87,20)"/>
<path d="M0,0 L1,0 L1,2 L0,2 Z " fill="#264742" transform="translate(64,20)"/>
<path d="M0,0 L1,0 L1,2 L0,2 Z " fill="#264742" transform="translate(41,20)"/>
<path d="M0,0 L1,0 L1,1 L0,1 Z " fill="#163B36" opacity="0.21960784" transform="translate(0,21)"/>
<path d="M0,0 L1,0 L1,2 L0,2 Z " fill="#DBD5C2" transform="translate(93,19)"/>
<path d="M0,0 L1,0 L1,2 L0,2 Z " fill="#DBD5C2" transform="translate(70,19)"/>
<path d="M0,0 L1,0 L1,2 L0,2 Z " fill="#DBD5C2" transform="translate(47,19)"/>
<path d="M0,0 L1,0 L1,1 L0,1 Z " fill="#163A36" opacity="0.30980393" transform="translate(126,18)"/>
<path d="M0,0 L1,0 L1,1 L0,1 Z " fill="#153A37" opacity="0.3254902" transform="translate(1,18)"/>
<path d="M0,0 L1,0 L1,1 L0,1 Z " fill="#173A36" opacity="0.50980395" transform="translate(125,16)"/>
<path d="M0,0 L1,0 L1,2 L0,2 Z " fill="#F0E5D0" transform="translate(91,15)"/>
<path d="M0,0 L1,0 L1,2 L0,2 Z " fill="#DFD8C5" transform="translate(86,15)"/>
<path d="M0,0 L1,0 L1,2 L0,2 Z " fill="#F0E5D0" transform="translate(68,15)"/>
<path d="M0,0 L1,0 L1,2 L0,2 Z " fill="#DFD8C5" transform="translate(63,15)"/>
<path d="M0,0 L1,0 L1,2 L0,2 Z " fill="#F0E5D0" transform="translate(45,15)"/>
<path d="M0,0 L1,0 L1,2 L0,2 Z " fill="#DFD8C5" transform="translate(40,15)"/>
<path d="M0,0 L1,0 L1,1 L0,1 Z " fill="#163A37" opacity="0.5254902" transform="translate(2,16)"/>
<path d="M0,0 L2,0 L2,1 L0,1 Z " fill="#DFD8C5" transform="translate(87,14)"/>
<path d="M0,0 L2,0 L2,1 L0,1 Z " fill="#DFD8C5" transform="translate(64,14)"/>
<path d="M0,0 L2,0 L2,1 L0,1 Z " fill="#DFD8C5" transform="translate(41,14)"/>
<path d="M0,0 L1,0 L1,1 L0,1 Z " fill="#163B37" opacity="0.5372549" transform="translate(3,14)"/>
<path d="M0,0 L1,0 L1,1 L0,1 Z " fill="#173A37" opacity="0.88235295" transform="translate(123,13)"/>
<path d="M0,0 L1,0 L1,1 L0,1 Z " fill="#173B37" opacity="0.89411765" transform="translate(4,13)"/>
<path d="M0,0 L1,0 L1,1 L0,1 Z M1,1 L2,1 L2,2 L1,2 Z " fill="#133A34" opacity="0.15294118" transform="translate(119,7)"/>
<path d="M0,0 L1,0 L1,1 L0,1 Z M-1,1 L0,1 L0,2 L-1,2 Z " fill="#123737" opacity="0.16078432" transform="translate(8,7)"/>
<path d="M0,0 L1,0 L1,1 L0,1 Z " fill="#173B36" opacity="0.6039216" transform="translate(11,5)"/>
<path d="M0,0 L1,0 L1,1 L0,1 Z " fill="#163B37" opacity="0.5372549" transform="translate(14,3)"/>
<path d="M0,0 L1,0 L1,1 L0,1 Z " fill="#163A37" opacity="0.5254902" transform="translate(16,2)"/>
<path d="M0,0 L1,0 L1,1 L0,1 Z " fill="#163B35" opacity="0.02745098" transform="translate(110,1)"/>
<path d="M0,0 L1,0 L1,1 L0,1 Z " fill="#153A37" opacity="0.3254902" transform="translate(18,1)"/>
<path d="M0,0 L1,0 L1,1 L0,1 Z " fill="#173C37" opacity="0.015686275" transform="translate(107,0)"/>
<path d="M0,0 L1,0 L1,1 L0,1 Z " fill="#163B37" opacity="0.4509804" transform="translate(105,0)"/>
<path d="M0,0 L1,0 L1,1 L0,1 Z " fill="#173A37" opacity="0.88235295" transform="translate(25,0)"/>
<path d="M0,0 L1,0 L1,1 L0,1 Z " fill="#163B36" opacity="0.21960784" transform="translate(21,0)"/>
<path d="M0,0 L1,0 L1,1 L0,1 Z " fill="#133A35" opacity="0.20392157" transform="translate(106,127)"/>
<path d="M0,0 L1,0 L1,1 L0,1 Z " fill="#173C37" opacity="0.6" transform="translate(104,127)"/>
<path d="M0,0 L1,0 L1,1 L0,1 Z " fill="#173B37" opacity="0.75686276" transform="translate(103,127)"/>
<path d="M0,0 L1,0 L1,1 L0,1 Z " fill="#173B37" opacity="0.9254902" transform="translate(101,127)"/>
<path d="M0,0 L1,0 L1,1 L0,1 Z " fill="#173B37" opacity="0.9764706" transform="translate(100,127)"/>
<path d="M0,0 L1,0 L1,1 L0,1 Z " fill="#173B37" opacity="0.9254902" transform="translate(26,127)"/>
<path d="M0,0 L1,0 L1,1 L0,1 Z " fill="#173B37" opacity="0.75686276" transform="translate(24,127)"/>
<path d="M0,0 L1,0 L1,1 L0,1 Z " fill="#163A36" opacity="0.44313726" transform="translate(22,127)"/>
<path d="M0,0 L1,0 L1,1 L0,1 Z " fill="#173B37" opacity="0.011764706" transform="translate(20,127)"/>
<path d="M0,0 L1,0 L1,1 L0,1 Z " fill="#163A37" opacity="0.30588236" transform="translate(109,126)"/>
<path d="M0,0 L1,0 L1,1 L0,1 Z " fill="#183C37" opacity="0.6666667" transform="translate(108,126)"/>
<path d="M0,0 L1,0 L1,1 L0,1 Z " fill="#173B37" opacity="0.9372549" transform="translate(107,126)"/>
<path d="M0,0 L1,0 L1,1 L0,1 Z " fill="#173B37" opacity="0.67058825" transform="translate(19,126)"/>
<path d="M0,0 L1,0 L1,1 L0,1 Z " fill="#173B37" opacity="0.023529412" transform="translate(17,126)"/>
<path d="M0,0 L1,0 L1,1 L0,1 Z " fill="#173B37" opacity="0.5019608" transform="translate(111,125)"/>
<path d="M0,0 L1,0 L1,1 L0,1 Z " fill="#173B37" opacity="0.9254902" transform="translate(110,125)"/>
<path d="M0,0 L1,0 L1,1 L0,1 Z " fill="#173B37" opacity="0.9254902" transform="translate(17,125)"/>
<path d="M0,0 L1,0 L1,1 L0,1 Z " fill="#163B37" opacity="0.07450981" transform="translate(15,125)"/>
<path d="M0,0 L1,0 L1,1 L0,1 Z " fill="#173A36" opacity="0.50980395" transform="translate(113,124)"/>
<path d="M0,0 L1,0 L1,1 L0,1 Z " fill="#173B37" opacity="0.9529412" transform="translate(112,124)"/>
<path d="M0,0 L1,0 L1,1 L0,1 Z " fill="#163B37" opacity="0.95686275" transform="translate(15,124)"/>
<path d="M0,0 L1,0 L1,1 L0,1 Z " fill="#173A37" opacity="0.043137256" transform="translate(13,124)"/>
<path d="M0,0 L1,0 L1,1 L0,1 Z " fill="#173936" opacity="0.29411766" transform="translate(115,123)"/>
<path d="M0,0 L1,0 L1,1 L0,1 Z " fill="#183B38" opacity="0.8745098" transform="translate(114,123)"/>
<path d="M0,0 L1,0 L1,1 L0,1 Z " fill="#163A37" opacity="0.30588236" transform="translate(12,123)"/>
<path d="M0,0 L1,0 L1,1 L0,1 Z " fill="#173C37" opacity="0.02745098" transform="translate(117,122)"/>
<path d="M0,0 L1,0 L1,1 L0,1 Z " fill="#163B37" opacity="0.57254905" transform="translate(116,122)"/>
<path d="M0,0 L1,0 L1,1 L0,1 Z " fill="#173B36" opacity="0.58431375" transform="translate(11,122)"/>
<path d="M0,0 L1,0 L1,1 L0,1 Z " fill="#173B37" opacity="0.03137255" transform="translate(10,122)"/>
<path d="M0,0 L1,0 L1,1 L0,1 Z " fill="#143D33" opacity="0.09803922" transform="translate(118,121)"/>
<path d="M0,0 L1,0 L1,1 L0,1 Z " fill="#173C37" opacity="0.8" transform="translate(117,121)"/>
<path d="M0,0 L1,0 L1,1 L0,1 Z " fill="#123838" opacity="0.105882354" transform="translate(9,121)"/>
<path d="M0,0 L1,0 L1,1 L0,1 Z " fill="#163B37" opacity="0.87058824" transform="translate(118,120)"/>
<path d="M0,0 L1,0 L1,1 L0,1 Z " fill="#173B37" opacity="0.8784314" transform="translate(9,120)"/>
<path d="M0,0 L1,0 L1,1 L0,1 Z " fill="#163B37" opacity="0.9137255" transform="translate(119,119)"/>
<path d="M0,0 L1,0 L1,1 L0,1 Z " fill="#173B37" opacity="0.91764706" transform="translate(8,119)"/>
<path d="M0,0 L1,0 L1,1 L0,1 Z " fill="#143D33" opacity="0.09803922" transform="translate(121,118)"/>
<path d="M0,0 L1,0 L1,1 L0,1 Z " fill="#163B37" opacity="0.87058824" transform="translate(120,118)"/>
<path d="M0,0 L1,0 L1,1 L0,1 Z " fill="#173B37" opacity="0.8784314" transform="translate(7,118)"/>
<path d="M0,0 L1,0 L1,1 L0,1 Z " fill="#123838" opacity="0.105882354" transform="translate(6,118)"/>
<path d="M0,0 L1,0 L1,1 L0,1 Z " fill="#163B37" opacity="0.02745098" transform="translate(122,117)"/>
<path d="M0,0 L1,0 L1,1 L0,1 Z " fill="#173C37" opacity="0.8" transform="translate(121,117)"/>
<path d="M0,0 L1,0 L1,1 L0,1 Z " fill="#173B37" opacity="0.03137255" transform="translate(5,117)"/>
<path d="M0,0 L1,0 L1,1 L0,1 Z " fill="#163B37" opacity="0.57254905" transform="translate(122,116)"/>
<path d="M0,0 L1,0 L1,1 L0,1 Z " fill="#173B37" opacity="0.5921569" transform="translate(5,116)"/>
<path d="M0,0 L1,0 L1,1 L0,1 Z " fill="#173936" opacity="0.29411766" transform="translate(123,115)"/>
<path d="M0,0 L1,0 L1,1 L0,1 Z " fill="#163A36" opacity="0.30980393" transform="translate(4,115)"/>
<path d="M0,0 L1,0 L1,1 L0,1 Z " fill="#183B38" opacity="0.8745098" transform="translate(123,114)"/>
<path d="M0,0 L1,0 L1,1 L0,1 Z " fill="#173B37" opacity="0.8862745" transform="translate(4,114)"/>
<path d="M0,0 L1,0 L1,1 L0,1 Z " fill="#163A37" opacity="0.043137256" transform="translate(3,114)"/>
<path d="M0,0 L1,0 L1,1 L0,1 Z " fill="#173A36" opacity="0.50980395" transform="translate(124,113)"/>
<path d="M0,0 L1,0 L1,1 L0,1 Z " fill="#163A37" opacity="0.5254902" transform="translate(3,113)"/>
<path d="M0,0 L1,0 L1,1 L0,1 Z " fill="#173B37" opacity="0.9529412" transform="translate(124,112)"/>
<path d="M0,0 L1,0 L1,1 L0,1 Z " fill="#0C3333" opacity="0.078431375" transform="translate(2,112)"/>
<path d="M0,0 L1,0 L1,1 L0,1 Z " fill="#173B37" opacity="0.5019608" transform="translate(125,111)"/>
<path d="M0,0 L1,0 L1,1 L0,1 Z " fill="#173B38" opacity="0.5176471" transform="translate(2,111)"/>
<path d="M0,0 L1,0 L1,1 L0,1 Z " fill="#173B37" opacity="0.9254902" transform="translate(125,110)"/>
<path d="M0,0 L1,0 L1,1 L0,1 Z " fill="#173B37" opacity="0.92941177" transform="translate(2,110)"/>
<path d="M0,0 L1,0 L1,1 L0,1 Z " fill="#163A37" opacity="0.30588236" transform="translate(126,109)"/>
<path d="M0,0 L1,0 L1,1 L0,1 Z " fill="#163B35" opacity="0.31764707" transform="translate(1,109)"/>
<path d="M0,0 L1,0 L1,1 L0,1 Z " fill="#183C37" opacity="0.6666667" transform="translate(126,108)"/>
<path d="M0,0 L1,0 L1,1 L0,1 Z " fill="#173C37" opacity="0.68235296" transform="translate(1,108)"/>
<path d="M0,0 L1,0 L1,1 L0,1 Z " fill="#173B37" opacity="0.9372549" transform="translate(126,107)"/>
<path d="M0,0 L1,0 L1,1 L0,1 Z " fill="#173B37" opacity="0.9490196" transform="translate(1,107)"/>
<path d="M0,0 L1,0 L1,1 L0,1 Z " fill="#133A35" opacity="0.20392157" transform="translate(127,106)"/>
<path d="M0,0 L1,0 L1,1 L0,1 Z " fill="#173C37" opacity="0.21568628" transform="translate(0,106)"/>
<path d="M0,0 L1,0 L1,1 L0,1 Z " fill="#173C37" opacity="0.6" transform="translate(127,104)"/>
<path d="M0,0 L1,0 L1,1 L0,1 Z " fill="#163A37" opacity="0.6117647" transform="translate(0,104)"/>
<path d="M0,0 L1,0 L1,1 L0,1 Z " fill="#173B37" opacity="0.75686276" transform="translate(127,103)"/>
<path d="M0,0 L1,0 L1,1 L0,1 Z " fill="#173B37" opacity="0.76862746" transform="translate(0,103)"/>
<path d="M0,0 L1,0 L1,1 L0,1 Z " fill="#173B37" opacity="0.9254902" transform="translate(127,101)"/>
<path d="M0,0 L1,0 L1,1 L0,1 Z " fill="#173C37" opacity="0.93333334" transform="translate(0,101)"/>
<path d="M0,0 L1,0 L1,1 L0,1 Z " fill="#173B37" opacity="0.9764706" transform="translate(127,100)"/>
<path d="M0,0 L1,0 L1,1 L0,1 Z " fill="#173B37" opacity="0.98039216" transform="translate(0,100)"/>
<path d="M0,0 L1,0 L1,1 L0,1 Z " fill="#183C37" transform="translate(75,99)"/>
<path d="M0,0 L1,0 L1,1 L0,1 Z " fill="#575D45" transform="translate(73,99)"/>
<path d="M0,0 L1,0 L1,1 L0,1 Z " fill="#8A7752" transform="translate(71,99)"/>
<path d="M0,0 L1,0 L1,1 L0,1 Z " fill="#B68F5B" transform="translate(69,99)"/>
<path d="M0,0 L1,0 L1,1 L0,1 Z " fill="#C8985F" transform="translate(68,99)"/>
<path d="M0,0 L1,0 L1,1 L0,1 Z " fill="#D69F62" transform="translate(66,99)"/>
<path d="M0,0 L1,0 L1,1 L0,1 Z " fill="#DEA464" transform="translate(65,99)"/>
<path d="M0,0 L1,0 L1,1 L0,1 Z " fill="#E5A765" transform="translate(64,99)"/>
<path d="M0,0 L1,0 L1,1 L0,1 Z " fill="#DEA464" transform="translate(62,99)"/>
<path d="M0,0 L1,0 L1,1 L0,1 Z " fill="#CF9C61" transform="translate(60,99)"/>
<path d="M0,0 L1,0 L1,1 L0,1 Z " fill="#B68F5B" transform="translate(58,99)"/>
<path d="M0,0 L1,0 L1,1 L0,1 Z " fill="#8A7752" transform="translate(56,99)"/>
<path d="M0,0 L1,0 L1,1 L0,1 Z " fill="#575D45" transform="translate(54,99)"/>
<path d="M0,0 L1,0 L1,1 L0,1 Z " fill="#30483D" transform="translate(53,99)"/>
<path d="M0,0 L1,0 L1,1 L0,1 Z " fill="#183C37" transform="translate(52,99)"/>
<path d="M0,0 L1,0 L1,1 L0,1 Z " fill="#435241" transform="translate(78,98)"/>
<path d="M0,0 L1,0 L1,1 L0,1 Z " fill="#AF8B5A" transform="translate(76,98)"/>
<path d="M0,0 L1,0 L1,1 L0,1 Z " fill="#D7A063" transform="translate(75,98)"/>
<path d="M0,0 L1,0 L1,1 L0,1 Z " fill="#D7A063" transform="translate(52,98)"/>
<path d="M0,0 L1,0 L1,1 L0,1 Z " fill="#80724F" transform="translate(50,98)"/>
<path d="M0,0 L1,0 L1,1 L0,1 Z " fill="#435241" transform="translate(49,98)"/>
<path d="M0,0 L1,0 L1,1 L0,1 Z " fill="#193C38" transform="translate(48,98)"/>
<path d="M0,0 L1,0 L1,1 L0,1 Z " fill="#183C37" transform="translate(82,97)"/>
<path d="M0,0 L1,0 L1,1 L0,1 Z " fill="#4C5744" transform="translate(81,97)"/>
<path d="M0,0 L1,0 L1,1 L0,1 Z " fill="#9A7F55" transform="translate(80,97)"/>
<path d="M0,0 L1,0 L1,1 L0,1 Z " fill="#D69F63" transform="translate(79,97)"/>
<path d="M0,0 L1,0 L1,1 L0,1 Z " fill="#9A7F55" transform="translate(47,97)"/>
<path d="M0,0 L1,0 L1,1 L0,1 Z " fill="#4C5744" transform="translate(46,97)"/>
<path d="M0,0 L1,0 L1,1 L0,1 Z " fill="#183C37" transform="translate(45,97)"/>
<path d="M0,0 L1,0 L1,1 L0,1 Z " fill="#6E694B" transform="translate(83,96)"/>
<path d="M0,0 L1,0 L1,1 L0,1 Z " fill="#C5975F" transform="translate(82,96)"/>
<path d="M0,0 L1,0 L1,1 L0,1 Z " fill="#C5975F" transform="translate(45,96)"/>
<path d="M0,0 L1,0 L1,1 L0,1 Z " fill="#6E694B" transform="translate(44,96)"/>
<path d="M0,0 L1,0 L1,1 L0,1 Z " fill="#22413A" transform="translate(43,96)"/>
<path d="M0,0 L1,0 L1,1 L0,1 Z " fill="#6D684B" transform="translate(85,95)"/>
<path d="M0,0 L1,0 L1,1 L0,1 Z " fill="#D6A062" transform="translate(84,95)"/>
<path d="M0,0 L1,0 L1,1 L0,1 Z " fill="#D69F62" transform="translate(43,95)"/>
<path d="M0,0 L1,0 L1,1 L0,1 Z " fill="#6D684B" transform="translate(42,95)"/>
<path d="M0,0 L1,0 L1,1 L0,1 Z " fill="#1B3E39" transform="translate(41,95)"/>
<path d="M0,0 L1,0 L1,1 L0,1 Z " fill="#4D5843" transform="translate(87,94)"/>
<path d="M0,0 L1,0 L1,1 L0,1 Z " fill="#C5965E" transform="translate(86,94)"/>
<path d="M0,0 L1,0 L1,1 L0,1 Z " fill="#C5975F" transform="translate(41,94)"/>
<path d="M0,0 L1,0 L1,1 L0,1 Z " fill="#4D5843" transform="translate(40,94)"/>
<path d="M0,0 L1,0 L1,1 L0,1 Z " fill="#1B3E39" transform="translate(89,93)"/>
<path d="M0,0 L1,0 L1,1 L0,1 Z " fill="#837450" transform="translate(88,93)"/>
<path d="M0,0 L1,0 L1,1 L0,1 Z " fill="#837450" transform="translate(39,93)"/>
<path d="M0,0 L1,0 L1,1 L0,1 Z " fill="#1B3E39" transform="translate(38,93)"/>
<path d="M0,0 L1,0 L1,1 L0,1 Z " fill="#2B463C" transform="translate(90,92)"/>
<path d="M0,0 L1,0 L1,1 L0,1 Z " fill="#B48E5B" transform="translate(89,92)"/>
<path d="M0,0 L1,0 L1,1 L0,1 Z " fill="#B48E5B" transform="translate(38,92)"/>
<path d="M0,0 L1,0 L1,1 L0,1 Z " fill="#2C473C" transform="translate(37,92)"/>
<path d="M0,0 L1,0 L1,1 L0,1 Z " fill="#2F483C" transform="translate(91,91)"/>
<path d="M0,0 L1,0 L1,1 L0,1 Z " fill="#CA9960" transform="translate(90,91)"/>
<path d="M0,0 L1,0 L1,1 L0,1 Z " fill="#CA9960" transform="translate(37,91)"/>
<path d="M0,0 L1,0 L1,1 L0,1 Z " fill="#30483D" transform="translate(36,91)"/>
<path d="M0,0 L1,0 L1,1 L0,1 Z " fill="#32493D" transform="translate(92,90)"/>
<path d="M0,0 L1,0 L1,1 L0,1 Z " fill="#32493D" transform="translate(35,90)"/>
<path d="M0,0 L1,0 L1,1 L0,1 Z " fill="#28443B" transform="translate(93,89)"/>
<path d="M0,0 L1,0 L1,1 L0,1 Z " fill="#28443B" transform="translate(34,89)"/>
<path d="M0,0 L1,0 L1,1 L0,1 Z " fill="#1A3D38" transform="translate(94,88)"/>
<path d="M0,0 L1,0 L1,1 L0,1 Z " fill="#AD8A59" transform="translate(93,88)"/>
<path d="M0,0 L1,0 L1,1 L0,1 Z " fill="#AE8A59" transform="translate(34,88)"/>
<path d="M0,0 L1,0 L1,1 L0,1 Z " fill="#1A3D38" transform="translate(33,88)"/>
<path d="M0,0 L1,0 L1,1 L0,1 Z " fill="#81734F" transform="translate(94,87)"/>
<path d="M0,0 L1,0 L1,1 L0,1 Z " fill="#837450" transform="translate(33,87)"/>
<path d="M0,0 L1,0 L1,1 L0,1 Z " fill="#445341" transform="translate(95,86)"/>
<path d="M0,0 L1,0 L1,1 L0,1 Z " fill="#455341" transform="translate(32,86)"/>
<path d="M0,0 L1,0 L1,1 L0,1 Z " fill="#BD935D" transform="translate(95,85)"/>
<path d="M0,0 L1,0 L1,1 L0,1 Z " fill="#BE925D" transform="translate(32,85)"/>
<path d="M0,0 L1,0 L1,1 L0,1 Z " fill="#6D684B" transform="translate(96,84)"/>
<path d="M0,0 L1,0 L1,1 L0,1 Z " fill="#6E684B" transform="translate(31,84)"/>
<path d="M0,0 L1,0 L1,1 L0,1 Z " fill="#D7A063" transform="translate(96,83)"/>
<path d="M0,0 L1,0 L1,1 L0,1 Z " fill="#D7A063" transform="translate(31,83)"/>
<path d="M0,0 L1,0 L1,1 L0,1 Z " fill="#6E694B" transform="translate(97,82)"/>
<path d="M0,0 L1,0 L1,1 L0,1 Z " fill="#6E694B" transform="translate(30,82)"/>
<path d="M0,0 L1,0 L1,1 L0,1 Z " fill="#CA9960" transform="translate(97,81)"/>
<path d="M0,0 L1,0 L1,1 L0,1 Z " fill="#CB995F" transform="translate(30,81)"/>
<path d="M0,0 L1,0 L1,1 L0,1 Z " fill="#595E46" transform="translate(98,80)"/>
<path d="M0,0 L1,0 L1,1 L0,1 Z " fill="#5A5F46" transform="translate(29,80)"/>
<path d="M0,0 L1,0 L1,1 L0,1 Z " fill="#A48558" transform="translate(98,79)"/>
<path d="M0,0 L1,0 L1,1 L0,1 Z " fill="#A68657" transform="translate(29,79)"/>
<path d="M0,0 L1,0 L1,1 L0,1 Z " fill="#E0A564" transform="translate(98,78)"/>
<path d="M0,0 L1,0 L1,1 L0,1 Z " fill="#E0A564" transform="translate(29,78)"/>
<path d="M0,0 L1,0 L1,1 L0,1 Z " fill="#22413A" transform="translate(28,78)"/>
<path d="M0,0 L1,0 L1,1 L0,1 Z " fill="#5F6147" transform="translate(99,77)"/>
<path d="M0,0 L1,0 L1,1 L0,1 Z " fill="#A38557" transform="translate(99,76)"/>
<path d="M0,0 L1,0 L1,1 L0,1 Z " fill="#A38557" transform="translate(28,76)"/>
<path d="M0,0 L1,0 L1,1 L0,1 Z " fill="#183C37" transform="translate(100,75)"/>
<path d="M0,0 L1,0 L1,1 L0,1 Z " fill="#D7A063" transform="translate(99,75)"/>
<path d="M0,0 L1,0 L1,1 L0,1 Z " fill="#D7A063" transform="translate(28,75)"/>
<path d="M0,0 L1,0 L1,1 L0,1 Z " fill="#183C37" transform="translate(27,75)"/>
<path d="M0,0 L1,0 L1,1 L0,1 Z " fill="#394D3F" transform="translate(100,74)"/>
<path d="M0,0 L1,0 L1,1 L0,1 Z " fill="#3A4D3F" transform="translate(27,74)"/>
<path d="M0,0 L1,0 L1,1 L0,1 Z " fill="#9A8055" transform="translate(100,72)"/>
<path d="M0,0 L1,0 L1,1 L0,1 Z " fill="#9B8155" transform="translate(27,72)"/>
<path d="M0,0 L1,0 L1,1 L0,1 Z " fill="#C1945E" transform="translate(100,71)"/>
<path d="M0,0 L1,0 L1,1 L0,1 Z " fill="#C3955E" transform="translate(27,71)"/>
<path d="M0,0 L1,0 L1,1 L0,1 Z " fill="#193C38" transform="translate(101,70)"/>
<path d="M0,0 L1,0 L1,1 L0,1 Z " fill="#DFA565" transform="translate(100,70)"/>
<path d="M0,0 L1,0 L1,1 L0,1 Z " fill="#E0A564" transform="translate(27,70)"/>
<path d="M0,0 L1,0 L1,1 L0,1 Z " fill="#193C38" transform="translate(26,70)"/>
<path d="M0,0 L1,0 L1,1 L0,1 Z " fill="#515944" transform="translate(101,68)"/>
<path d="M0,0 L1,0 L1,1 L0,1 Z " fill="#525A44" transform="translate(26,68)"/>
<path d="M0,0 L1,0 L1,1 L0,1 Z " fill="#6F694B" transform="translate(101,67)"/>
<path d="M0,0 L1,0 L1,1 L0,1 Z " fill="#6F694B" transform="translate(26,67)"/>
<path d="M0,0 L1,0 L1,1 L0,1 Z " fill="#947D53" transform="translate(101,65)"/>
<path d="M0,0 L1,0 L1,1 L0,1 Z " fill="#957D54" transform="translate(26,65)"/>
<path d="M0,0 L1,0 L1,1 L0,1 Z " fill="#B7905C" transform="translate(101,63)"/>
<path d="M0,0 L1,0 L1,1 L0,1 Z " fill="#B88F5B" transform="translate(26,63)"/>
<path d="M0,0 L1,0 L1,1 L0,1 Z " fill="#C7985F" transform="translate(101,62)"/>
<path d="M0,0 L1,0 L1,1 L0,1 Z " fill="#D09C61" transform="translate(26,61)"/>
<path d="M0,0 L1,0 L1,1 L0,1 Z " fill="#D59E62" transform="translate(101,60)"/>
<path d="M0,0 L1,0 L1,1 L0,1 Z " fill="#D6A062" transform="translate(26,60)"/>
<path d="M0,0 L1,0 L1,1 L0,1 Z " fill="#DFA565" transform="translate(101,58)"/>
<path d="M0,0 L1,0 L1,1 L0,1 Z " fill="#E0A564" transform="translate(26,58)"/>
<path d="M0,0 L1,0 L1,1 L0,1 Z " fill="#E6A766" transform="translate(101,57)"/>
<path d="M0,0 L1,0 L1,1 L0,1 Z " fill="#E6A766" transform="translate(26,57)"/>
<path d="M0,0 L1,0 L1,1 L0,1 Z " fill="#1A3E3A" transform="translate(88,44)"/>
<path d="M0,0 L1,0 L1,1 L0,1 Z " fill="#DDD7C3" transform="translate(86,44)"/>
<path d="M0,0 L1,0 L1,1 L0,1 Z " fill="#8B9689" transform="translate(84,44)"/>
<path d="M0,0 L1,0 L1,1 L0,1 Z " fill="#1A3E3A" transform="translate(83,44)"/>
<path d="M0,0 L1,0 L1,1 L0,1 Z " fill="#1A3E3A" transform="translate(65,44)"/>
<path d="M0,0 L1,0 L1,1 L0,1 Z " fill="#DDD7C3" transform="translate(63,44)"/>
<path d="M0,0 L1,0 L1,1 L0,1 Z " fill="#8B9689" transform="translate(61,44)"/>
<path d="M0,0 L1,0 L1,1 L0,1 Z " fill="#1A3E3A" transform="translate(60,44)"/>
<path d="M0,0 L1,0 L1,1 L0,1 Z " fill="#1A3E3A" transform="translate(42,44)"/>
<path d="M0,0 L1,0 L1,1 L0,1 Z " fill="#DDD7C3" transform="translate(40,44)"/>
<path d="M0,0 L1,0 L1,1 L0,1 Z " fill="#8B9689" transform="translate(38,44)"/>
<path d="M0,0 L1,0 L1,1 L0,1 Z " fill="#1A3E3A" transform="translate(37,44)"/>
<path d="M0,0 L1,0 L1,1 L0,1 Z " fill="#98A092" transform="translate(83,43)"/>
<path d="M0,0 L1,0 L1,1 L0,1 Z " fill="#98A092" transform="translate(60,43)"/>
<path d="M0,0 L1,0 L1,1 L0,1 Z " fill="#98A092" transform="translate(37,43)"/>
<path d="M0,0 L1,0 L1,1 L0,1 Z " fill="#DED7C4" transform="translate(88,42)"/>
<path d="M0,0 L1,0 L1,1 L0,1 Z " fill="#F2E7D2" transform="translate(83,42)"/>
<path d="M0,0 L1,0 L1,1 L0,1 Z " fill="#4F675F" transform="translate(82,42)"/>
<path d="M0,0 L1,0 L1,1 L0,1 Z " fill="#DED7C4" transform="translate(65,42)"/>
<path d="M0,0 L1,0 L1,1 L0,1 Z " fill="#F2E7D2" transform="translate(60,42)"/>
<path d="M0,0 L1,0 L1,1 L0,1 Z " fill="#4F675F" transform="translate(59,42)"/>
<path d="M0,0 L1,0 L1,1 L0,1 Z " fill="#DED7C4" transform="translate(42,42)"/>
<path d="M0,0 L1,0 L1,1 L0,1 Z " fill="#F2E7D2" transform="translate(37,42)"/>
<path d="M0,0 L1,0 L1,1 L0,1 Z " fill="#4F675F" transform="translate(36,42)"/>
<path d="M0,0 L1,0 L1,1 L0,1 Z " fill="#D4D0BD" transform="translate(82,41)"/>
<path d="M0,0 L1,0 L1,1 L0,1 Z " fill="#D4D0BD" transform="translate(59,41)"/>
<path d="M0,0 L1,0 L1,1 L0,1 Z " fill="#D4D0BD" transform="translate(36,41)"/>
<path d="M0,0 L1,0 L1,1 L0,1 Z " fill="#8D988A" transform="translate(88,40)"/>
<path d="M0,0 L1,0 L1,1 L0,1 Z " fill="#75857A" transform="translate(81,40)"/>
<path d="M0,0 L1,0 L1,1 L0,1 Z " fill="#8D988A" transform="translate(65,40)"/>
<path d="M0,0 L1,0 L1,1 L0,1 Z " fill="#75857A" transform="translate(58,40)"/>
<path d="M0,0 L1,0 L1,1 L0,1 Z " fill="#8D988A" transform="translate(42,40)"/>
<path d="M0,0 L1,0 L1,1 L0,1 Z " fill="#75857A" transform="translate(35,40)"/>
<path d="M0,0 L1,0 L1,1 L0,1 Z " fill="#22443F" transform="translate(88,39)"/>
<path d="M0,0 L1,0 L1,1 L0,1 Z " fill="#D7D2BF" transform="translate(87,39)"/>
<path d="M0,0 L1,0 L1,1 L0,1 Z " fill="#D1CEBB" transform="translate(81,39)"/>
<path d="M0,0 L1,0 L1,1 L0,1 Z " fill="#22443F" transform="translate(65,39)"/>
<path d="M0,0 L1,0 L1,1 L0,1 Z " fill="#D7D2BF" transform="translate(64,39)"/>
<path d="M0,0 L1,0 L1,1 L0,1 Z " fill="#D1CEBB" transform="translate(58,39)"/>
<path d="M0,0 L1,0 L1,1 L0,1 Z " fill="#22443F" transform="translate(42,39)"/>
<path d="M0,0 L1,0 L1,1 L0,1 Z " fill="#D7D2BF" transform="translate(41,39)"/>
<path d="M0,0 L1,0 L1,1 L0,1 Z " fill="#D1CEBB" transform="translate(35,39)"/>
<path d="M0,0 L1,0 L1,1 L0,1 Z " fill="#506860" transform="translate(87,38)"/>
<path d="M0,0 L1,0 L1,1 L0,1 Z " fill="#4B645C" transform="translate(80,38)"/>
<path d="M0,0 L1,0 L1,1 L0,1 Z " fill="#506860" transform="translate(64,38)"/>
<path d="M0,0 L1,0 L1,1 L0,1 Z " fill="#4B645C" transform="translate(57,38)"/>
<path d="M0,0 L1,0 L1,1 L0,1 Z " fill="#506860" transform="translate(41,38)"/>
<path d="M0,0 L1,0 L1,1 L0,1 Z " fill="#4B645C" transform="translate(34,38)"/>
<path d="M0,0 L1,0 L1,1 L0,1 Z " fill="#C1C1B0" transform="translate(86,37)"/>
<path d="M0,0 L1,0 L1,1 L0,1 Z " fill="#738378" transform="translate(80,37)"/>
<path d="M0,0 L1,0 L1,1 L0,1 Z " fill="#C1C1B0" transform="translate(63,37)"/>
<path d="M0,0 L1,0 L1,1 L0,1 Z " fill="#738378" transform="translate(57,37)"/>
<path d="M0,0 L1,0 L1,1 L0,1 Z " fill="#C1C1B0" transform="translate(40,37)"/>
<path d="M0,0 L1,0 L1,1 L0,1 Z " fill="#738378" transform="translate(34,37)"/>
<path d="M0,0 L1,0 L1,1 L0,1 Z " fill="#6B7C72" transform="translate(86,35)"/>
<path d="M0,0 L1,0 L1,1 L0,1 Z " fill="#98A093" transform="translate(80,35)"/>
<path d="M0,0 L1,0 L1,1 L0,1 Z " fill="#6B7C72" transform="translate(63,35)"/>
<path d="M0,0 L1,0 L1,1 L0,1 Z " fill="#98A093" transform="translate(57,35)"/>
<path d="M0,0 L1,0 L1,1 L0,1 Z " fill="#6B7C72" transform="translate(40,35)"/>
<path d="M0,0 L1,0 L1,1 L0,1 Z " fill="#98A093" transform="translate(34,35)"/>
<path d="M0,0 L1,0 L1,1 L0,1 Z " fill="#C8C6B4" transform="translate(86,34)"/>
<path d="M0,0 L1,0 L1,1 L0,1 Z " fill="#C8C6B4" transform="translate(63,34)"/>
<path d="M0,0 L1,0 L1,1 L0,1 Z " fill="#C8C6B4" transform="translate(40,34)"/>
<path d="M0,0 L1,0 L1,1 L0,1 Z " fill="#7C8A7E" transform="translate(87,33)"/>
<path d="M0,0 L1,0 L1,1 L0,1 Z " fill="#596F66" transform="translate(80,33)"/>
<path d="M0,0 L1,0 L1,1 L0,1 Z " fill="#7C8A7E" transform="translate(64,33)"/>
<path d="M0,0 L1,0 L1,1 L0,1 Z " fill="#596F66" transform="translate(57,33)"/>
<path d="M0,0 L1,0 L1,1 L0,1 Z " fill="#7C8A7E" transform="translate(41,33)"/>
<path d="M0,0 L1,0 L1,1 L0,1 Z " fill="#596F66" transform="translate(34,33)"/>
<path d="M0,0 L1,0 L1,1 L0,1 Z " fill="#6E8075" transform="translate(88,32)"/>
<path d="M0,0 L1,0 L1,1 L0,1 Z " fill="#F2E7D2" transform="translate(87,32)"/>
<path d="M0,0 L1,0 L1,1 L0,1 Z " fill="#1B3F3B" transform="translate(80,32)"/>
<path d="M0,0 L1,0 L1,1 L0,1 Z " fill="#6E8075" transform="translate(65,32)"/>
<path d="M0,0 L1,0 L1,1 L0,1 Z " fill="#F2E7D2" transform="translate(64,32)"/>
<path d="M0,0 L1,0 L1,1 L0,1 Z " fill="#1B3F3B" transform="translate(57,32)"/>
<path d="M0,0 L1,0 L1,1 L0,1 Z " fill="#6E8075" transform="translate(42,32)"/>
<path d="M0,0 L1,0 L1,1 L0,1 Z " fill="#F2E7D2" transform="translate(41,32)"/>
<path d="M0,0 L1,0 L1,1 L0,1 Z " fill="#1B3F3B" transform="translate(34,32)"/>
<path d="M0,0 L1,0 L1,1 L0,1 Z " fill="#677A6F" transform="translate(89,31)"/>
<path d="M0,0 L1,0 L1,1 L0,1 Z " fill="#F1E6D1" transform="translate(88,31)"/>
<path d="M0,0 L1,0 L1,1 L0,1 Z " fill="#7A897D" transform="translate(81,31)"/>
<path d="M0,0 L1,0 L1,1 L0,1 Z " fill="#677A6F" transform="translate(66,31)"/>
<path d="M0,0 L1,0 L1,1 L0,1 Z " fill="#F1E6D1" transform="translate(65,31)"/>
<path d="M0,0 L1,0 L1,1 L0,1 Z " fill="#7A897D" transform="translate(58,31)"/>
<path d="M0,0 L1,0 L1,1 L0,1 Z " fill="#677A6F" transform="translate(43,31)"/>
<path d="M0,0 L1,0 L1,1 L0,1 Z " fill="#F1E6D1" transform="translate(42,31)"/>
<path d="M0,0 L1,0 L1,1 L0,1 Z " fill="#7A897D" transform="translate(35,31)"/>
<path d="M0,0 L1,0 L1,1 L0,1 Z " fill="#60756B" transform="translate(90,30)"/>
<path d="M0,0 L1,0 L1,1 L0,1 Z " fill="#F0E5D0" transform="translate(89,30)"/>
<path d="M0,0 L1,0 L1,1 L0,1 Z " fill="#C5C4B3" transform="translate(82,30)"/>
<path d="M0,0 L1,0 L1,1 L0,1 Z " fill="#1A3E3A" transform="translate(81,30)"/>
<path d="M0,0 L1,0 L1,1 L0,1 Z " fill="#60756B" transform="translate(67,30)"/>
<path d="M0,0 L1,0 L1,1 L0,1 Z " fill="#F0E5D0" transform="translate(66,30)"/>
<path d="M0,0 L1,0 L1,1 L0,1 Z " fill="#C5C4B3" transform="translate(59,30)"/>
<path d="M0,0 L1,0 L1,1 L0,1 Z " fill="#1A3E3A" transform="translate(58,30)"/>
<path d="M0,0 L1,0 L1,1 L0,1 Z " fill="#60756B" transform="translate(44,30)"/>
<path d="M0,0 L1,0 L1,1 L0,1 Z " fill="#F0E5D0" transform="translate(43,30)"/>
<path d="M0,0 L1,0 L1,1 L0,1 Z " fill="#C5C4B3" transform="translate(36,30)"/>
<path d="M0,0 L1,0 L1,1 L0,1 Z " fill="#1A3E3A" transform="translate(35,30)"/>
<path d="M0,0 L1,0 L1,1 L0,1 Z " fill="#596F66" transform="translate(91,29)"/>
<path d="M0,0 L1,0 L1,1 L0,1 Z " fill="#EEE4CF" transform="translate(90,29)"/>
<path d="M0,0 L1,0 L1,1 L0,1 Z " fill="#DAD4C1" transform="translate(83,29)"/>
<path d="M0,0 L1,0 L1,1 L0,1 Z " fill="#34514C" transform="translate(82,29)"/>
<path d="M0,0 L1,0 L1,1 L0,1 Z " fill="#596F66" transform="translate(68,29)"/>
<path d="M0,0 L1,0 L1,1 L0,1 Z " fill="#EEE4CF" transform="translate(67,29)"/>
<path d="M0,0 L1,0 L1,1 L0,1 Z " fill="#DAD4C1" transform="translate(60,29)"/>
<path d="M0,0 L1,0 L1,1 L0,1 Z " fill="#34514C" transform="translate(59,29)"/>
<path d="M0,0 L1,0 L1,1 L0,1 Z " fill="#596F66" transform="translate(45,29)"/>
<path d="M0,0 L1,0 L1,1 L0,1 Z " fill="#EEE4CF" transform="translate(44,29)"/>
<path d="M0,0 L1,0 L1,1 L0,1 Z " fill="#DAD4C1" transform="translate(37,29)"/>
<path d="M0,0 L1,0 L1,1 L0,1 Z " fill="#34514C" transform="translate(36,29)"/>
<path d="M0,0 L1,0 L1,1 L0,1 Z " fill="#37544E" transform="translate(92,28)"/>
<path d="M0,0 L1,0 L1,1 L0,1 Z " fill="#E8E0CB" transform="translate(91,28)"/>
<path d="M0,0 L1,0 L1,1 L0,1 Z " fill="#DFD8C5" transform="translate(84,28)"/>
<path d="M0,0 L1,0 L1,1 L0,1 Z " fill="#39564F" transform="translate(83,28)"/>
<path d="M0,0 L1,0 L1,1 L0,1 Z " fill="#37544E" transform="translate(69,28)"/>
<path d="M0,0 L1,0 L1,1 L0,1 Z " fill="#E8E0CB" transform="translate(68,28)"/>
<path d="M0,0 L1,0 L1,1 L0,1 Z " fill="#DFD8C5" transform="translate(61,28)"/>
<path d="M0,0 L1,0 L1,1 L0,1 Z " fill="#39564F" transform="translate(60,28)"/>
<path d="M0,0 L1,0 L1,1 L0,1 Z " fill="#37544E" transform="translate(46,28)"/>
<path d="M0,0 L1,0 L1,1 L0,1 Z " fill="#E8E0CB" transform="translate(45,28)"/>
<path d="M0,0 L1,0 L1,1 L0,1 Z " fill="#DFD8C5" transform="translate(38,28)"/>
<path d="M0,0 L1,0 L1,1 L0,1 Z " fill="#39564F" transform="translate(37,28)"/>
<path d="M0,0 L1,0 L1,1 L0,1 Z " fill="#C3C3B1" transform="translate(92,27)"/>
<path d="M0,0 L1,0 L1,1 L0,1 Z " fill="#E1DAC7" transform="translate(85,27)"/>
<path d="M0,0 L1,0 L1,1 L0,1 Z " fill="#3E5A53" transform="translate(84,27)"/>
<path d="M0,0 L1,0 L1,1 L0,1 Z " fill="#C3C3B1" transform="translate(69,27)"/>
<path d="M0,0 L1,0 L1,1 L0,1 Z " fill="#E1DAC7" transform="translate(62,27)"/>
<path d="M0,0 L1,0 L1,1 L0,1 Z " fill="#3E5A53" transform="translate(61,27)"/>
<path d="M0,0 L1,0 L1,1 L0,1 Z " fill="#C3C3B1" transform="translate(46,27)"/>
<path d="M0,0 L1,0 L1,1 L0,1 Z " fill="#E1DAC7" transform="translate(39,27)"/>
<path d="M0,0 L1,0 L1,1 L0,1 Z " fill="#3E5A53" transform="translate(38,27)"/>
<path d="M0,0 L1,0 L1,1 L0,1 Z " fill="#173B37" opacity="0.9254902" transform="translate(127,26)"/>
<path d="M0,0 L1,0 L1,1 L0,1 Z " fill="#596F66" transform="translate(93,26)"/>
<path d="M0,0 L1,0 L1,1 L0,1 Z " fill="#E5DDC9" transform="translate(86,26)"/>
<path d="M0,0 L1,0 L1,1 L0,1 Z " fill="#435E57" transform="translate(85,26)"/>
<path d="M0,0 L1,0 L1,1 L0,1 Z " fill="#596F66" transform="translate(70,26)"/>
<path d="M0,0 L1,0 L1,1 L0,1 Z " fill="#E5DDC9" transform="translate(63,26)"/>
<path d="M0,0 L1,0 L1,1 L0,1 Z " fill="#435E57" transform="translate(62,26)"/>
<path d="M0,0 L1,0 L1,1 L0,1 Z " fill="#596F66" transform="translate(47,26)"/>
<path d="M0,0 L1,0 L1,1 L0,1 Z " fill="#E5DDC9" transform="translate(40,26)"/>
<path d="M0,0 L1,0 L1,1 L0,1 Z " fill="#435E57" transform="translate(39,26)"/>
<path d="M0,0 L1,0 L1,1 L0,1 Z " fill="#173C37" opacity="0.93333334" transform="translate(0,26)"/>
<path d="M0,0 L1,0 L1,1 L0,1 Z " fill="#B9BAA9" transform="translate(93,25)"/>
<path d="M0,0 L1,0 L1,1 L0,1 Z " fill="#EAE1CD" transform="translate(87,25)"/>
<path d="M0,0 L1,0 L1,1 L0,1 Z " fill="#486159" transform="translate(86,25)"/>
<path d="M0,0 L1,0 L1,1 L0,1 Z " fill="#B9BAA9" transform="translate(70,25)"/>
<path d="M0,0 L1,0 L1,1 L0,1 Z " fill="#EAE1CD" transform="translate(64,25)"/>
<path d="M0,0 L1,0 L1,1 L0,1 Z " fill="#486159" transform="translate(63,25)"/>
<path d="M0,0 L1,0 L1,1 L0,1 Z " fill="#B9BAA9" transform="translate(47,25)"/>
<path d="M0,0 L1,0 L1,1 L0,1 Z " fill="#EAE1CD" transform="translate(41,25)"/>
<path d="M0,0 L1,0 L1,1 L0,1 Z " fill="#486159" transform="translate(40,25)"/>
<path d="M0,0 L1,0 L1,1 L0,1 Z " fill="#173B37" opacity="0.75686276" transform="translate(127,24)"/>
<path d="M0,0 L1,0 L1,1 L0,1 Z " fill="#E4DCC8" transform="translate(93,24)"/>
<path d="M0,0 L1,0 L1,1 L0,1 Z " fill="#808E82" transform="translate(87,24)"/>
<path d="M0,0 L1,0 L1,1 L0,1 Z " fill="#E4DCC8" transform="translate(70,24)"/>
<path d="M0,0 L1,0 L1,1 L0,1 Z " fill="#808E82" transform="translate(64,24)"/>
<path d="M0,0 L1,0 L1,1 L0,1 Z " fill="#E4DCC8" transform="translate(47,24)"/>
<path d="M0,0 L1,0 L1,1 L0,1 Z " fill="#808E82" transform="translate(41,24)"/>
<path d="M0,0 L1,0 L1,1 L0,1 Z " fill="#173B37" opacity="0.76862746" transform="translate(0,24)"/>
<path d="M0,0 L1,0 L1,1 L0,1 Z " fill="#1D403B" transform="translate(87,23)"/>
<path d="M0,0 L1,0 L1,1 L0,1 Z " fill="#1D403B" transform="translate(64,23)"/>
<path d="M0,0 L1,0 L1,1 L0,1 Z " fill="#1D403B" transform="translate(41,23)"/>
<path d="M0,0 L1,0 L1,1 L0,1 Z " fill="#163A36" opacity="0.44313726" transform="translate(127,22)"/>
<path d="M0,0 L1,0 L1,1 L0,1 Z " fill="#2E4D48" transform="translate(94,22)"/>
<path d="M0,0 L1,0 L1,1 L0,1 Z " fill="#CAC8B6" transform="translate(88,22)"/>
<path d="M0,0 L1,0 L1,1 L0,1 Z " fill="#2E4D48" transform="translate(71,22)"/>
<path d="M0,0 L1,0 L1,1 L0,1 Z " fill="#CAC8B6" transform="translate(65,22)"/>
<path d="M0,0 L1,0 L1,1 L0,1 Z " fill="#2E4D48" transform="translate(48,22)"/>
<path d="M0,0 L1,0 L1,1 L0,1 Z " fill="#CAC8B6" transform="translate(42,22)"/>
<path d="M0,0 L1,0 L1,1 L0,1 Z " fill="#153B36" opacity="0.45490196" transform="translate(0,22)"/>
<path d="M0,0 L1,0 L1,1 L0,1 Z " fill="#1D403B" transform="translate(94,21)"/>
<path d="M0,0 L1,0 L1,1 L0,1 Z " fill="#EDE3CF" transform="translate(88,21)"/>
<path d="M0,0 L1,0 L1,1 L0,1 Z " fill="#1D403B" transform="translate(71,21)"/>
<path d="M0,0 L1,0 L1,1 L0,1 Z " fill="#EDE3CF" transform="translate(65,21)"/>
<path d="M0,0 L1,0 L1,1 L0,1 Z " fill="#1D403B" transform="translate(48,21)"/>
<path d="M0,0 L1,0 L1,1 L0,1 Z " fill="#EDE3CF" transform="translate(42,21)"/>
<path d="M0,0 L1,0 L1,1 L0,1 Z " fill="#173B37" opacity="0.011764706" transform="translate(127,20)"/>
<path d="M0,0 L1,0 L1,1 L0,1 Z " fill="#738379" transform="translate(87,20)"/>
<path d="M0,0 L1,0 L1,1 L0,1 Z " fill="#738379" transform="translate(64,20)"/>
<path d="M0,0 L1,0 L1,1 L0,1 Z " fill="#738379" transform="translate(41,20)"/>
<path d="M0,0 L1,0 L1,1 L0,1 Z " fill="#173B37" opacity="0.019607844" transform="translate(0,20)"/>
<path d="M0,0 L1,0 L1,1 L0,1 Z " fill="#173B37" opacity="0.67058825" transform="translate(126,19)"/>
<path d="M0,0 L1,0 L1,1 L0,1 Z " fill="#939D8F" transform="translate(93,19)"/>
<path d="M0,0 L1,0 L1,1 L0,1 Z " fill="#E1D9C6" transform="translate(87,19)"/>
<path d="M0,0 L1,0 L1,1 L0,1 Z " fill="#284843" transform="translate(86,19)"/>
<path d="M0,0 L1,0 L1,1 L0,1 Z " fill="#939D8F" transform="translate(70,19)"/>
<path d="M0,0 L1,0 L1,1 L0,1 Z " fill="#E1D9C6" transform="translate(64,19)"/>
<path d="M0,0 L1,0 L1,1 L0,1 Z " fill="#284843" transform="translate(63,19)"/>
<path d="M0,0 L1,0 L1,1 L0,1 Z " fill="#939D8F" transform="translate(47,19)"/>
<path d="M0,0 L1,0 L1,1 L0,1 Z " fill="#E1D9C6" transform="translate(41,19)"/>
<path d="M0,0 L1,0 L1,1 L0,1 Z " fill="#284843" transform="translate(40,19)"/>
<path d="M0,0 L1,0 L1,1 L0,1 Z " fill="#173B37" opacity="0.6862745" transform="translate(1,19)"/>
<path d="M0,0 L1,0 L1,1 L0,1 Z " fill="#476159" transform="translate(93,18)"/>
<path d="M0,0 L1,0 L1,1 L0,1 Z " fill="#8F9A8D" transform="translate(86,18)"/>
<path d="M0,0 L1,0 L1,1 L0,1 Z " fill="#476159" transform="translate(70,18)"/>
<path d="M0,0 L1,0 L1,1 L0,1 Z " fill="#8F9A8D" transform="translate(63,18)"/>
<path d="M0,0 L1,0 L1,1 L0,1 Z " fill="#476159" transform="translate(47,18)"/>
<path d="M0,0 L1,0 L1,1 L0,1 Z " fill="#8F9A8D" transform="translate(40,18)"/>
<path d="M0,0 L1,0 L1,1 L0,1 Z " fill="#173B37" opacity="0.023529412" transform="translate(126,17)"/>
<path d="M0,0 L1,0 L1,1 L0,1 Z " fill="#173B37" opacity="0.9254902" transform="translate(125,17)"/>
<path d="M0,0 L1,0 L1,1 L0,1 Z " fill="#B9BAA9" transform="translate(92,17)"/>
<path d="M0,0 L1,0 L1,1 L0,1 Z " fill="#DFD8C5" transform="translate(86,17)"/>
<path d="M0,0 L1,0 L1,1 L0,1 Z " fill="#B9BAA9" transform="translate(69,17)"/>
<path d="M0,0 L1,0 L1,1 L0,1 Z " fill="#DFD8C5" transform="translate(63,17)"/>
<path d="M0,0 L1,0 L1,1 L0,1 Z " fill="#B9BAA9" transform="translate(46,17)"/>
<path d="M0,0 L1,0 L1,1 L0,1 Z " fill="#DFD8C5" transform="translate(40,17)"/>
<path d="M0,0 L1,0 L1,1 L0,1 Z " fill="#173C37" opacity="0.93333334" transform="translate(2,17)"/>
<path d="M0,0 L1,0 L1,1 L0,1 Z " fill="#173C37" opacity="0.02745098" transform="translate(1,17)"/>
<path d="M0,0 L1,0 L1,1 L0,1 Z " fill="#3D5953" transform="translate(92,16)"/>
<path d="M0,0 L1,0 L1,1 L0,1 Z " fill="#3D5953" transform="translate(69,16)"/>
<path d="M0,0 L1,0 L1,1 L0,1 Z " fill="#3D5953" transform="translate(46,16)"/>
<path d="M0,0 L1,0 L1,1 L0,1 Z " fill="#163B37" opacity="0.07450981" transform="translate(125,15)"/>
<path d="M0,0 L1,0 L1,1 L0,1 Z " fill="#163B37" opacity="0.95686275" transform="translate(124,15)"/>
<path d="M0,0 L1,0 L1,1 L0,1 Z " fill="#939D8F" transform="translate(91,15)"/>
<path d="M0,0 L1,0 L1,1 L0,1 Z " fill="#F3E8D3" transform="translate(87,15)"/>
<path d="M0,0 L1,0 L1,1 L0,1 Z " fill="#8D988A" transform="translate(86,15)"/>
<path d="M0,0 L1,0 L1,1 L0,1 Z " fill="#939D8F" transform="translate(68,15)"/>
<path d="M0,0 L1,0 L1,1 L0,1 Z " fill="#F3E8D3" transform="translate(64,15)"/>
<path d="M0,0 L1,0 L1,1 L0,1 Z " fill="#8D988A" transform="translate(63,15)"/>
<path d="M0,0 L1,0 L1,1 L0,1 Z " fill="#939D8F" transform="translate(45,15)"/>
<path d="M0,0 L1,0 L1,1 L0,1 Z " fill="#F3E8D3" transform="translate(41,15)"/>
<path d="M0,0 L1,0 L1,1 L0,1 Z " fill="#8D988A" transform="translate(40,15)"/>
<path d="M0,0 L1,0 L1,1 L0,1 Z " fill="#173B37" opacity="0.9647059" transform="translate(3,15)"/>
<path d="M0,0 L1,0 L1,1 L0,1 Z " fill="#183C30" opacity="0.08235294" transform="translate(2,15)"/>
<path d="M0,0 L1,0 L1,1 L0,1 Z " fill="#1A3E3A" transform="translate(91,14)"/>
<path d="M0,0 L1,0 L1,1 L0,1 Z " fill="#8C978A" transform="translate(90,14)"/>
<path d="M0,0 L1,0 L1,1 L0,1 Z " fill="#DFD8C5" transform="translate(89,14)"/>
<path d="M0,0 L1,0 L1,1 L0,1 Z " fill="#8C978A" transform="translate(87,14)"/>
<path d="M0,0 L1,0 L1,1 L0,1 Z " fill="#1A3E3A" transform="translate(86,14)"/>
<path d="M0,0 L1,0 L1,1 L0,1 Z " fill="#1A3E3A" transform="translate(68,14)"/>
<path d="M0,0 L1,0 L1,1 L0,1 Z " fill="#8C978A" transform="translate(67,14)"/>
<path d="M0,0 L1,0 L1,1 L0,1 Z " fill="#DFD8C5" transform="translate(66,14)"/>
<path d="M0,0 L1,0 L1,1 L0,1 Z " fill="#8C978A" transform="translate(64,14)"/>
<path d="M0,0 L1,0 L1,1 L0,1 Z " fill="#1A3E3A" transform="translate(63,14)"/>
<path d="M0,0 L1,0 L1,1 L0,1 Z " fill="#1A3E3A" transform="translate(45,14)"/>
<path d="M0,0 L1,0 L1,1 L0,1 Z " fill="#8C978A" transform="translate(44,14)"/>
<path d="M0,0 L1,0 L1,1 L0,1 Z " fill="#DFD8C5" transform="translate(43,14)"/>
<path d="M0,0 L1,0 L1,1 L0,1 Z " fill="#8C978A" transform="translate(41,14)"/>
<path d="M0,0 L1,0 L1,1 L0,1 Z " fill="#1A3E3A" transform="translate(40,14)"/>
<path d="M0,0 L1,0 L1,1 L0,1 Z " fill="#173A37" opacity="0.043137256" transform="translate(124,13)"/>
<path d="M0,0 L1,0 L1,1 L0,1 Z " fill="#173B37" opacity="0.047058824" transform="translate(3,13)"/>
<path d="M0,0 L1,0 L1,1 L0,1 Z " fill="#163A37" opacity="0.30588236" transform="translate(123,12)"/>
<path d="M0,0 L1,0 L1,1 L0,1 Z " fill="#153B37" opacity="0.32156864" transform="translate(4,12)"/>
<path d="M0,0 L1,0 L1,1 L0,1 Z " fill="#173B36" opacity="0.58431375" transform="translate(122,11)"/>
<path d="M0,0 L1,0 L1,1 L0,1 Z " fill="#173B36" opacity="0.6039216" transform="translate(5,11)"/>
<path d="M0,0 L1,0 L1,1 L0,1 Z " fill="#173B37" opacity="0.03137255" transform="translate(122,10)"/>
<path d="M0,0 L1,0 L1,1 L0,1 Z " fill="#173B36" opacity="0.03529412" transform="translate(5,10)"/>
<path d="M0,0 L1,0 L1,1 L0,1 Z " fill="#123838" opacity="0.105882354" transform="translate(121,9)"/>
<path d="M0,0 L1,0 L1,1 L0,1 Z " fill="#173B37" opacity="0.8784314" transform="translate(120,9)"/>
<path d="M0,0 L1,0 L1,1 L0,1 Z " fill="#173B37" opacity="0.8862745" transform="translate(7,9)"/>
<path d="M0,0 L1,0 L1,1 L0,1 Z " fill="#113D34" opacity="0.11372549" transform="translate(6,9)"/>
<path d="M0,0 L1,0 L1,1 L0,1 Z " fill="#173B37" opacity="0.91764706" transform="translate(119,8)"/>
<path d="M0,0 L1,0 L1,1 L0,1 Z " fill="#173B37" opacity="0.92156863" transform="translate(8,8)"/>
<path d="M0,0 L1,0 L1,1 L0,1 Z " fill="#173B37" opacity="0.8784314" transform="translate(118,7)"/>
<path d="M0,0 L1,0 L1,1 L0,1 Z " fill="#173B37" opacity="0.8862745" transform="translate(9,7)"/>
<path d="M0,0 L1,0 L1,1 L0,1 Z " fill="#123838" opacity="0.105882354" transform="translate(118,6)"/>
<path d="M0,0 L1,0 L1,1 L0,1 Z " fill="#113D34" opacity="0.11372549" transform="translate(9,6)"/>
<path d="M0,0 L1,0 L1,1 L0,1 Z " fill="#173B37" opacity="0.03137255" transform="translate(117,5)"/>
<path d="M0,0 L1,0 L1,1 L0,1 Z " fill="#173B37" opacity="0.5921569" transform="translate(116,5)"/>
<path d="M0,0 L1,0 L1,1 L0,1 Z " fill="#173B36" opacity="0.03529412" transform="translate(10,5)"/>
<path d="M0,0 L1,0 L1,1 L0,1 Z " fill="#163A36" opacity="0.30980393" transform="translate(115,4)"/>
<path d="M0,0 L1,0 L1,1 L0,1 Z " fill="#173B37" opacity="0.8862745" transform="translate(114,4)"/>
<path d="M0,0 L1,0 L1,1 L0,1 Z " fill="#153B37" opacity="0.32156864" transform="translate(12,4)"/>
<path d="M0,0 L1,0 L1,1 L0,1 Z " fill="#163A37" opacity="0.043137256" transform="translate(114,3)"/>
<path d="M0,0 L1,0 L1,1 L0,1 Z " fill="#163A37" opacity="0.5254902" transform="translate(113,3)"/>
<path d="M0,0 L1,0 L1,1 L0,1 Z " fill="#173B37" opacity="0.9647059" transform="translate(15,3)"/>
<path d="M0,0 L1,0 L1,1 L0,1 Z " fill="#163B37" opacity="0.047058824" transform="translate(13,3)"/>
<path d="M0,0 L1,0 L1,1 L0,1 Z " fill="#0C3333" opacity="0.078431375" transform="translate(112,2)"/>
<path d="M0,0 L1,0 L1,1 L0,1 Z " fill="#173B38" opacity="0.5176471" transform="translate(111,2)"/>
<path d="M0,0 L1,0 L1,1 L0,1 Z " fill="#173B37" opacity="0.92941177" transform="translate(110,2)"/>
<path d="M0,0 L1,0 L1,1 L0,1 Z " fill="#173C37" opacity="0.93333334" transform="translate(17,2)"/>
<path d="M0,0 L1,0 L1,1 L0,1 Z " fill="#183C30" opacity="0.08235294" transform="translate(15,2)"/>
<path d="M0,0 L1,0 L1,1 L0,1 Z " fill="#163B35" opacity="0.31764707" transform="translate(109,1)"/>
<path d="M0,0 L1,0 L1,1 L0,1 Z " fill="#173C37" opacity="0.68235296" transform="translate(108,1)"/>
<path d="M0,0 L1,0 L1,1 L0,1 Z " fill="#173B37" opacity="0.9490196" transform="translate(107,1)"/>
<path d="M0,0 L1,0 L1,1 L0,1 Z " fill="#173B37" opacity="0.6862745" transform="translate(19,1)"/>
<path d="M0,0 L1,0 L1,1 L0,1 Z " fill="#153A37" opacity="0.02745098" transform="translate(17,1)"/>
<path d="M0,0 L1,0 L1,1 L0,1 Z " fill="#173C37" opacity="0.21568628" transform="translate(106,0)"/>
<path d="M0,0 L1,0 L1,1 L0,1 Z " fill="#163A37" opacity="0.6117647" transform="translate(104,0)"/>
<path d="M0,0 L1,0 L1,1 L0,1 Z " fill="#173B37" opacity="0.76862746" transform="translate(103,0)"/>
<path d="M0,0 L1,0 L1,1 L0,1 Z " fill="#173C37" opacity="0.93333334" transform="translate(101,0)"/>
<path d="M0,0 L1,0 L1,1 L0,1 Z " fill="#173B37" opacity="0.98039216" transform="translate(100,0)"/>
<path d="M0,0 L1,0 L1,1 L0,1 Z " fill="#173C37" opacity="0.93333334" transform="translate(26,0)"/>
<path d="M0,0 L1,0 L1,1 L0,1 Z " fill="#173B37" opacity="0.76862746" transform="translate(24,0)"/>
<path d="M0,0 L1,0 L1,1 L0,1 Z " fill="#153B36" opacity="0.45490196" transform="translate(22,0)"/>
<path d="M0,0 L1,0 L1,1 L0,1 Z " fill="#163B36" opacity="0.019607844" transform="translate(20,0)"/>
</svg>
